<?xml version="1.0" encoding="UTF-8" standalone="no"?>
<!-- Created with Inkscape (http://www.inkscape.org/) -->

<svg
   xmlns:dc="http://purl.org/dc/elements/1.1/"
   xmlns:cc="http://creativecommons.org/ns#"
   xmlns:rdf="http://www.w3.org/1999/02/22-rdf-syntax-ns#"
   xmlns:svg="http://www.w3.org/2000/svg"
   xmlns="http://www.w3.org/2000/svg"
   xmlns:sodipodi="http://sodipodi.sourceforge.net/DTD/sodipodi-0.dtd"
   xmlns:inkscape="http://www.inkscape.org/namespaces/inkscape"
   version="1.1"
   id="svg8"
   inkscape:version="0.92.3 (3ce5693213, 2018-03-11)"
   sodipodi:docname="monocle.svg"
   viewBox="0 0 256 256">
  <title
     id="title4953">Monocle</title>
  <defs
     id="defs2">
    <marker
       inkscape:stockid="EmptyDiamondSend"
       orient="auto"
       refY="0"
       refX="0"
       id="EmptyDiamondSend"
       style="overflow:visible"
       inkscape:isstock="true">
      <path
         id="path4649"
         d="M 0,-7.0710768 -7.0710894,0 0,7.0710589 7.0710462,0 Z"
         style="fill:#ffffff;fill-rule:evenodd;stroke:#000000;stroke-width:1.00000003pt;stroke-opacity:1"
         transform="matrix(0.2,0,0,0.2,-1.2,0)"
         inkscape:connector-curvature="0" />
    </marker>
    <inkscape:path-effect
       effect="bspline"
       id="path-effect4981"
       is_visible="true"
       weight="33.333333"
       steps="2"
       helper_size="0"
       apply_no_weight="true"
       apply_with_weight="true"
       only_selected="false" />
    <inkscape:path-effect
       effect="spiro"
       id="path-effect4847"
       is_visible="true" />
  </defs>
  <sodipodi:namedview
     id="base"
     pagecolor="#ffffff"
     bordercolor="#666666"
     borderopacity="1.0"
     inkscape:pageopacity="0.0"
     inkscape:pageshadow="2"
     inkscape:zoom="2"
     inkscape:cx="70.427402"
     inkscape:cy="118.519"
     inkscape:document-units="px"
     inkscape:current-layer="layer1"
     showgrid="false"
     inkscape:snap-others="false"
     inkscape:snap-intersection-paths="false"
     inkscape:window-width="1920"
     inkscape:window-height="1009"
     inkscape:window-x="0"
     inkscape:window-y="24"
     inkscape:window-maximized="1"
     showborder="true"
     units="px"
     inkscape:pagecheckerboard="false"
     showguides="true"
     fit-margin-top="0"
     fit-margin-left="0"
     fit-margin-right="0"
     fit-margin-bottom="0"
     inkscape:object-nodes="false"
     inkscape:snap-nodes="false"
     inkscape:snap-grids="false"
     inkscape:snap-global="false"
     width="256" />
  <metadata
     id="metadata5">
    <rdf:RDF>
      <cc:Work
         rdf:about="">
        <dc:format>image/svg+xml</dc:format>
        <dc:type
           rdf:resource="http://purl.org/dc/dcmitype/StillImage" />
        <dc:title>Monocle</dc:title>
        <cc:license
           rdf:resource="http://artlibre.org/licence/lal" />
        <dc:creator>
          <cc:Agent>
            <dc:title>Bicobus &lt;bicobus@keemail.me&gt;</dc:title>
          </cc:Agent>
        </dc:creator>
      </cc:Work>
      <cc:License
         rdf:about="http://artlibre.org/licence/lal">
        <cc:permits
           rdf:resource="http://creativecommons.org/ns#Reproduction" />
        <cc:permits
           rdf:resource="http://creativecommons.org/ns#Distribution" />
        <cc:permits
           rdf:resource="http://creativecommons.org/ns#DerivativeWorks" />
        <cc:requires
           rdf:resource="http://creativecommons.org/ns#ShareAlike" />
        <cc:requires
           rdf:resource="http://creativecommons.org/ns#Notice" />
        <cc:requires
           rdf:resource="http://creativecommons.org/ns#Attribution" />
      </cc:License>
    </rdf:RDF>
  </metadata>
  <g
     inkscape:label="Calque 1"
     inkscape:groupmode="layer"
     id="layer1"
     transform="translate(-85.282819,4.0148381)">
    <path
       style="fill:none;stroke:#949494;stroke-width:1.6423229;stroke-linecap:butt;stroke-linejoin:miter;stroke-miterlimit:4;stroke-dasharray:none;stroke-opacity:1"
       d="m 250.25338,59.567103 c 3.66031,-1.464249 7.93166,-1.320421 11.48518,0.386736 3.55353,1.707157 6.33524,4.95171 7.47974,8.724249 0.81975,2.702114 0.81351,5.648824 -0.0177,8.347437 -0.83121,2.698614 -2.484,5.138168 -4.68202,6.910768 -2.19803,1.7726 -4.93235,2.871045 -7.74581,3.111674 -2.81345,0.240629 -5.6946,-0.377536 -8.16171,-1.751136"
       id="path4845"
       inkscape:connector-curvature="0"
       inkscape:path-effect="#path-effect4847"
       inkscape:original-d="m 250.25338,59.567103 c 6.32218,3.036447 12.64382,6.073442 18.96492,9.110985 6.32109,3.037536 -13.7376,11.078619 -20.60724,16.618743" />
    <path
       id="rect4892"
       style="fill:none;fill-opacity:1;fill-rule:evenodd;stroke:#000000;stroke-width:2.82393122;stroke-linecap:butt;stroke-linejoin:bevel;stroke-miterlimit:4;stroke-dasharray:none;stroke-dashoffset:0;stroke-opacity:1;marker-end:url(#EmptyDiamondSend);paint-order:normal"
       d="m 268.24618,72.559775 h 2.85485 v 0.677424 h -2.85485 z m 2.87692,0.346495 c 0,0 24.76934,1.582641 33.80965,6.414422 21.03929,11.244889 15.9572,43.066998 -1.02717,53.304988 -17.42546,10.50387 -41.6393,7.63146 -60.63988,6.97204 -12.15536,-0.42186 -23.15878,1.85394 -33.81635,5.67027 -8.64768,3.09662 -15.82359,9.52995 -22.69574,18.14811 -12.98219,16.28058 -12.63167,47.81404 1.29628,63.9627 20.43315,23.69106 63.14058,26.36065 92.5402,15.66291 13.55338,-4.93171 29.55645,-18.60553 28.04487,-32.94885 -1.8313,-17.37723 -24.02788,-28.36079 -41.5517,-31.95862 -6.60269,-1.3556 -20.29411,-1.81275 -29.59651,-1.21861 -15.95763,1.01922 -28.99027,4.41184 -28.99027,4.41184"
       inkscape:connector-curvature="0"
       inkscape:label="Rope"
       sodipodi:nodetypes="ccccccsssssaaassc" />
    <circle
       style="opacity:1;fill:#ff2a2a;fill-opacity:1;fill-rule:evenodd;stroke:#ff5555;stroke-width:2.83909655;stroke-linecap:round;stroke-linejoin:bevel;stroke-miterlimit:4;stroke-dasharray:none;stroke-dashoffset:0;stroke-opacity:1;paint-order:normal"
       id="path4975"
       cx="181.58954"
       cy="68.750481"
       inkscape:label="Lens"
       r="63.036892" />
    <path
       style="color:#000000;font-style:normal;font-variant:normal;font-weight:normal;font-stretch:normal;font-size:medium;line-height:normal;font-family:sans-serif;font-variant-ligatures:normal;font-variant-position:normal;font-variant-caps:normal;font-variant-numeric:normal;font-variant-alternates:normal;font-feature-settings:normal;text-indent:0;text-align:start;text-decoration:none;text-decoration-line:none;text-decoration-style:solid;text-decoration-color:#000000;letter-spacing:normal;word-spacing:normal;text-transform:none;writing-mode:lr-tb;direction:ltr;text-orientation:mixed;dominant-baseline:auto;baseline-shift:baseline;text-anchor:start;white-space:normal;shape-padding:0;clip-rule:nonzero;display:inline;overflow:visible;visibility:visible;opacity:1;isolation:auto;mix-blend-mode:normal;color-interpolation:sRGB;color-interpolation-filters:linearRGB;solid-color:#000000;solid-opacity:1;vector-effect:none;fill:#ff7f2a;fill-opacity:1;fill-rule:evenodd;stroke:none;stroke-width:2.94442368;stroke-linecap:round;stroke-linejoin:round;stroke-miterlimit:4;stroke-dasharray:none;stroke-dashoffset:0;stroke-opacity:1;paint-order:normal;color-rendering:auto;image-rendering:auto;shape-rendering:auto;text-rendering:auto;enable-background:accumulate"
       d="m 179.48632,-3.9918216 c -37.48132,0.033774 -70.75791,33.3083996 -70.79004,70.7900546 -1.86781,37.430287 29.67015,72.318717 67.08191,74.281647 36.65507,3.6739 72.60748,-24.92565 77.36683,-61.430684 6.43518,-36.306508 -19.39457,-74.3057604 -55.4591,-81.8136416 -5.95882,-1.367231 -12.088,-1.9807413 -18.1996,-1.827376 z m 1.83629,8.9944872 c 34.0057,-0.9019248 64.58136,29.6406124 63.63481,63.6704094 0.89143,33.999415 -29.66489,64.534415 -63.67042,63.596245 -34.60475,0.93845 -65.45213,-30.74873 -63.57547,-65.319793 0.37333,-33.825319 29.76567,-62.4601656 63.61108,-61.9468614 z"
       id="path4485"
       inkscape:connector-curvature="0" />
    <path
       style="fill:#ffd5d5;fill-opacity:0.98557691;stroke:none;stroke-width:0.54744095px;stroke-linecap:butt;stroke-linejoin:miter;stroke-opacity:1"
       d="m 146.7338,30.292319 c -3.32499,2.871129 -6.70148,6.305645 -9.21679,10.043519 -2.51532,3.737875 -4.16769,7.77699 -5.38119,11.216394 -1.2135,3.439404 -1.9876,6.277779 -2.56835,9.794441 -0.58075,3.516661 -0.96776,7.709277 -0.66211,10.560948 0.30564,2.851672 1.30388,4.36055 2.11635,4.023395 0.81247,-0.337155 1.43873,-2.520029 1.97245,-4.623549 0.53372,-2.103521 0.97493,-4.127679 2.07959,-7.629201 1.10466,-3.501522 2.87265,-8.480356 5.04444,-12.98739 2.17179,-4.507034 4.7472,-8.542285 7.72901,-12.178641 2.98181,-3.636356 6.36988,-6.873922 9.0894,-9.136184 2.71952,-2.262263 4.7704,-3.549349 6.2135,-4.973564 1.44309,-1.424214 2.27866,-2.985252 1.08656,-3.273878 -1.19209,-0.288626 -4.4107,0.694346 -7.6585,2.340268 -3.2478,1.645922 -6.51937,3.952314 -9.84436,6.823442 z"
       id="path4979"
       inkscape:connector-curvature="0"
       inkscape:path-effect="#path-effect4981"
       inkscape:original-d="m 146.78527,29.728961 c -3.37646,3.434487 -6.75295,6.869003 -10.13099,10.305096 -1.65231,4.03977 -3.30468,8.078884 -4.95784,12.119149 -0.77373,2.838535 -1.54784,5.676908 -2.32259,8.516183 -0.38664,4.19399 -0.77365,8.386606 -1.16129,12.580725 0.99907,1.508762 1.99731,3.01764 2.99516,4.527297 0.62681,-2.183449 1.25307,-4.366323 1.8788,-6.548664 0.44176,-2.024713 0.88297,-4.048872 1.32365,-6.072494 1.76856,-4.979394 3.53655,-9.958231 5.304,-14.936526 2.57595,-4.035796 5.15136,-8.071044 7.72621,-12.105744 3.38862,-3.238118 6.77669,-6.475684 10.16422,-9.712706 2.05143,-1.287636 4.10231,-2.574724 6.15265,-3.861264 0.83614,-1.561634 1.6717,-3.122676 2.50678,-4.683264 -3.21957,0.982885 -6.43818,1.965853 -9.66005,2.950208 -3.2737,2.307732 -6.54527,4.61412 -9.81871,6.922004 z"
       sodipodi:nodetypes="ccccccccccccccc" />
  </g>
</svg>
