<?xml version="1.0" encoding="UTF-8" standalone="no"?>
<!-- Created with Inkscape (http://www.inkscape.org/) -->

<svg
   xmlns:osb="http://www.openswatchbook.org/uri/2009/osb"
   xmlns:dc="http://purl.org/dc/elements/1.1/"
   xmlns:cc="http://creativecommons.org/ns#"
   xmlns:rdf="http://www.w3.org/1999/02/22-rdf-syntax-ns#"
   xmlns:svg="http://www.w3.org/2000/svg"
   xmlns="http://www.w3.org/2000/svg"
   xmlns:xlink="http://www.w3.org/1999/xlink"
   xmlns:sodipodi="http://sodipodi.sourceforge.net/DTD/sodipodi-0.dtd"
   xmlns:inkscape="http://www.inkscape.org/namespaces/inkscape"
   sodipodi:docname="top_hat.svg"
   inkscape:version="0.92.1 r15371"
   inkscape:export-ydpi="96"
   inkscape:export-xdpi="96"
   id="svg8"
   version="1.1"
   viewBox="0 0 256 256"
   height="100%"
   width="100%"
   style="enable-background:new"
   enable-background="new">
  <title
     id="title4508">Top Hat</title>
  <defs
     id="defs2">
    <linearGradient
       id="innoGrad-6"
       inkscape:collect="always">
      <stop
         id="stop5311"
         offset="0"
         style="stop-color:#000000;stop-opacity:1;" />
      <stop
         id="stop5313"
         offset="1"
         style="stop-color:#000000;stop-opacity:0.35096154" />
    </linearGradient>
    <inkscape:path-effect
       only_selected="false"
       apply_with_weight="true"
       apply_no_weight="true"
       helper_size="0"
       steps="2"
       weight="33.333333"
       is_visible="true"
       id="path-effect5301"
       effect="bspline" />
    <linearGradient
       inkscape:collect="always"
       id="innoGrad-0">
      <stop
         style="stop-color:#000000;stop-opacity:1;"
         offset="0"
         id="stop5094" />
      <stop
         style="stop-color:#000000;stop-opacity:0;"
         offset="1"
         id="stop5096" />
    </linearGradient>
    <linearGradient
       id="Body-7"
       osb:paint="gradient">
      <stop
         style="stop-color:#000000;stop-opacity:1;"
         offset="0"
         id="stop8890" />
      <stop
         style="stop-color:#ffe2ff;stop-opacity:0"
         offset="1"
         id="stop8892" />
    </linearGradient>
    <inkscape:path-effect
       effect="bspline"
       id="path-effect4916"
       is_visible="true"
       weight="33.333333"
       steps="2"
       helper_size="0"
       apply_no_weight="true"
       apply_with_weight="true"
       only_selected="false" />
    <inkscape:path-effect
       effect="bspline"
       id="path-effect3876"
       is_visible="true"
       weight="33.333333"
       steps="2"
       helper_size="0"
       apply_no_weight="true"
       apply_with_weight="true"
       only_selected="false" />
    <inkscape:path-effect
       effect="bspline"
       id="path-effect3872"
       is_visible="true"
       weight="33.333333"
       steps="2"
       helper_size="0"
       apply_no_weight="true"
       apply_with_weight="true"
       only_selected="false" />
    <inkscape:path-effect
       effect="bspline"
       id="path-effect3872-6"
       is_visible="true"
       weight="33.333333"
       steps="2"
       helper_size="0"
       apply_no_weight="true"
       apply_with_weight="true"
       only_selected="false" />
    <linearGradient
       inkscape:collect="always"
       xlink:href="#innoGrad-0"
       id="linearGradient5100"
       x1="-11.538533"
       y1="315.86682"
       x2="229.36128"
       y2="316.35895"
       gradientUnits="userSpaceOnUse"
       gradientTransform="translate(-9.6555181e-5,-190.00387)" />
    <linearGradient
       inkscape:collect="always"
       xlink:href="#innoGrad-0"
       id="linearGradient5110"
       x1="21.30249"
       y1="172.46817"
       x2="235.83459"
       y2="172.27904"
       gradientUnits="userSpaceOnUse"
       gradientTransform="translate(-9.6555181e-5,-190.00387)" />
    <linearGradient
       inkscape:collect="always"
       xlink:href="#innoGrad-6"
       id="linearGradient5309"
       x1="21.758923"
       y1="159.49719"
       x2="60.631496"
       y2="159.82697"
       gradientUnits="userSpaceOnUse" />
  </defs>
  <sodipodi:namedview
     inkscape:measure-end="0,0"
     inkscape:measure-start="0,0"
     inkscape:object-paths="true"
     inkscape:window-maximized="1"
     inkscape:window-y="27"
     inkscape:window-x="0"
     inkscape:window-height="1009"
     inkscape:window-width="1920"
     inkscape:snap-smooth-nodes="false"
     showgrid="false"
     inkscape:current-layer="layer2"
     inkscape:document-units="mm"
     inkscape:cy="130.11833"
     inkscape:cx="113.37622"
     inkscape:zoom="5.6"
     inkscape:pageshadow="2"
     inkscape:pageopacity="0.0"
     borderopacity="1.0"
     bordercolor="#666666"
     pagecolor="#ffffff"
     id="base"
     units="px"
     scale-x="3"
     viewbox-width="80"
     viewbox-height="80"
     inkscape:pagecheckerboard="false"
     width="4"
     height="4"
     fit-margin-top="0"
     fit-margin-left="0"
     fit-margin-right="0"
     fit-margin-bottom="0">
    <inkscape:grid
       type="xygrid"
       id="grid5112" />
  </sodipodi:namedview>
  <metadata
     id="metadata5">
    <rdf:RDF>
      <cc:Work
         rdf:about="">
        <dc:format>image/svg+xml</dc:format>
        <dc:type
           rdf:resource="http://purl.org/dc/dcmitype/StillImage" />
        <dc:title>Top Hat</dc:title>
        <cc:license
           rdf:resource="http://artlibre.org/licence/lal" />
        <dc:creator>
          <cc:Agent>
            <dc:title>Bicobus &lt;bicobus@keemail.me&gt;</dc:title>
          </cc:Agent>
        </dc:creator>
        <dc:relation></dc:relation>
        <dc:description>Lilith's throne object art</dc:description>
      </cc:Work>
      <cc:License
         rdf:about="http://artlibre.org/licence/lal">
        <cc:permits
           rdf:resource="http://creativecommons.org/ns#Reproduction" />
        <cc:permits
           rdf:resource="http://creativecommons.org/ns#Distribution" />
        <cc:permits
           rdf:resource="http://creativecommons.org/ns#DerivativeWorks" />
        <cc:requires
           rdf:resource="http://creativecommons.org/ns#ShareAlike" />
        <cc:requires
           rdf:resource="http://creativecommons.org/ns#Notice" />
        <cc:requires
           rdf:resource="http://creativecommons.org/ns#Attribution" />
      </cc:License>
    </rdf:RDF>
  </metadata>
  <g
     inkscape:groupmode="layer"
     id="layer2"
     inkscape:label="Calque 2"
     style="display:inline"
     transform="translate(-17.940446,73.0766)">
    <path
       style="display:inline;fill:#ff2a2a;fill-opacity:1;fill-rule:evenodd;stroke:#000000;stroke-width:0.38800925;stroke-linecap:butt;stroke-linejoin:miter;stroke-miterlimit:4;stroke-dasharray:none;stroke-opacity:1;enable-background:new"
       d="m 46.556208,-31.930358 c 0.260971,-0.766608 0.782727,-2.299273 2.787927,-4.337011 2.005201,-2.037738 5.495635,-4.582166 9.571723,-6.718008 4.076088,-2.135843 8.740035,-3.864457 14.984652,-5.543811 6.244617,-1.679353 14.072048,-3.310059 21.360413,-4.647065 7.288367,-1.337006 14.039217,-2.380618 22.093837,-3.309984 8.05462,-0.929366 17.41459,-1.744679 27.40961,-2.21752 9.99502,-0.472841 20.62669,-0.603308 30.83375,-0.211984 10.20705,0.391324 19.99072,1.304462 27.52375,2.119732 7.53303,0.815269 12.81624,1.532749 17.78924,2.52736 4.97301,0.994611 9.63667,2.266515 12.75092,3.277434 3.11425,1.010919 4.67966,1.761015 6.16333,2.739264 1.48367,0.97825 2.88609,2.184981 3.82595,3.36126 0.93986,1.176278 1.44063,2.378112 1.66893,4.090293 0.22831,1.712182 0.19568,3.961944 -0.76648,9.473952 -0.96216,5.512007 -2.85327,14.282835 -4.25557,20.951891 -1.4023,6.6690554 -2.31536,11.23438555 -2.98393,16.4361218 -0.66857,5.2017362 -1.09247,11.0385762 -1.43491,18.9145002 -0.34243,7.875924 -0.60331,17.78897 -0.7501,24.180806 -0.14678,6.391836 -0.17945,9.261483 -0.19578,11.006201 -0.0163,1.744718 -0.0163,2.36426 3.52436,2.70695 3.5407,0.34269 10.61287,0.407955 15.21089,0.734122 4.59803,0.326168 6.71789,0.91321 8.74777,1.650982 2.02988,0.737772 3.97044,1.626498 5.23409,2.262414 1.26364,0.635916 1.85021,1.018845 2.59471,1.87546 0.7445,0.856614 1.64484,2.184448 2.1147,3.493328 0.46987,1.30888 0.50828,2.597315 0.52748,3.241714 0.0192,0.6444 0.0192,0.6444 -0.0345,0.932239 -0.0537,0.28784 -0.16213,0.868438 -0.85243,2.903483 -0.6903,2.035046 -1.96121,5.521927 -3.96691,9.28879 -2.0057,3.766863 -4.74464,7.810037 -8.00592,11.788844 -3.26129,3.9788 -7.04375,7.8917 -12.86519,12.5391 -5.82143,4.64739 -13.67988,10.02764 -21.11538,15.00095 -7.4355,4.97331 -14.44648,9.53862 -23.75728,14.56093 -9.3108,5.02231 -20.91959,10.50061 -31.5836,14.77275 -10.66402,4.27214 -20.3817,7.33744 -27.40949,9.35937 -7.02778,2.02193 -11.36485,3.00022 -15.86543,3.57096 -4.50059,0.57074 -9.16347,0.73377 -13.50093,0.76638 -4.33745,0.0326 -8.34825,-0.0652 -12.70207,-0.42395 -4.353815,-0.35874 -9.049375,-0.9783 -12.490903,-1.56147 -3.441529,-0.58317 -5.689594,-1.14519 -9.097728,-1.94422 -3.408134,-0.79903 -8.005732,-1.84244 -11.919203,-3.08169 -3.913471,-1.23925 -7.141791,-2.67406 -11.26725,-4.82648 -4.125458,-2.15242 -9.147271,-5.02203 -13.125893,-7.77772 -3.978623,-2.75568 -6.913557,-5.39711 -9.864911,-8.91917 -2.951355,-3.52206 -5.918916,-7.92449 -7.940804,-11.20193 -2.021888,-3.27743 -3.098059,-5.42978 -4.011149,-8.07125 -0.91309,-2.64147 -1.663192,-5.77233 -2.038184,-9.03334 -0.374992,-3.26101 -0.374992,-6.65286 -0.260825,-9.00079 0.114166,-2.34793 0.342475,-3.65252 0.619613,-5.29906 0.277137,-1.646543 0.603346,-3.636472 1.956507,-7.108994 1.353161,-3.472521 3.734312,-8.430509 6.620301,-12.963227 2.885989,-4.532719 6.277855,-8.64209 8.96817,-11.772625 2.690315,-3.130535 4.679776,-5.283076 7.092763,-7.484089 2.412986,-2.201014 5.250655,-4.451573 7.843074,-6.196128 2.592419,-1.744554 4.940779,-2.983981 6.359316,-3.766654 1.418537,-0.782673 1.907745,-1.108804 1.549335,-5.719213 C 59.862129,40.849431 58.654418,31.938492 57.676102,24.323926 56.697787,16.70936 55.947709,10.382616 55.344404,6.306309 54.741098,2.2300021 54.28452,0.40369199 53.632363,-2.3842899 52.980206,-5.1722719 52.132199,-8.9230836 51.30485,-12.25046 c -0.82735,-3.327377 -1.651102,-6.292891 -2.335903,-8.62447 -0.684801,-2.331579 -1.239235,-4.060116 -1.66315,-5.674291 -0.423914,-1.614175 -0.71746,-3.114512 -0.864179,-3.864407 -0.14672,-0.749896 -0.146382,-0.750122 0.11459,-1.51673 z"
       id="path3870-2"
       inkscape:connector-curvature="0"
       inkscape:original-d="m 46.295236,-31.16375 c 0.522146,-1.533147 1.043917,-3.065807 1.565312,-4.598129 3.488719,-2.543323 6.979164,-5.087735 10.468145,-7.630983 4.663172,-1.728577 9.327133,-3.457154 13.990117,-5.185205 7.826263,-1.630731 15.653689,-3.261462 23.479951,-4.89163 6.750479,-1.04388 13.501339,-2.087459 20.251439,-3.130663 9.35915,-0.815609 18.71912,-1.630956 28.07808,-2.445777 10.63111,-0.130612 21.26278,-0.261224 31.89359,-0.391385 9.78334,0.912705 19.56701,1.825823 29.34993,2.739316 5.28316,0.71705 10.56637,1.434513 15.84897,2.152352 4.66347,1.271361 9.32713,2.543285 13.99012,3.815472 1.56561,0.749628 3.13103,1.499707 4.69597,2.250161 1.40254,1.206093 2.80496,2.412824 4.20682,3.619818 0.48953,1.140975 0.97872,2.347631 1.4675,3.522009 -0.0338,2.250161 -0.0649,4.499945 -0.0979,6.750481 -1.8914,8.773535 -3.78249,17.544367 -5.67433,26.3171129 -0.91274,4.5653636 -1.82582,9.13069011 -2.73931,13.6966161 -0.42359,5.837513 -0.84752,11.674351 -1.27182,17.512127 -0.26047,9.914059 -0.52139,19.827104 -0.78269,29.741238 -0.0338,2.869515 -0.0649,5.73918 -0.098,8.609332 3.8e-4,0.619279 3.8e-4,1.238821 0,1.858851 7.0814,0.06493 14.15357,0.130236 21.22979,0.195917 2.11996,0.586552 4.23981,1.173628 6.35914,1.761005 1.94052,0.888159 3.88108,1.776881 5.82107,2.665903 0.58738,0.382827 1.17397,0.765729 1.76097,1.149607 0.90216,1.329499 1.80248,2.657346 2.70336,3.986957 0.039,1.288439 0.0773,2.576877 0.11522,3.865691 3.8e-4,-3.75e-4 3.8e-4,-3.75e-4 0,0 -0.10734,0.575704 -0.21581,1.156288 -0.3239,1.73492 -1.27234,3.491533 -2.54325,6.978413 -3.81547,10.468178 -2.73932,4.04394 -5.47826,8.08711 -8.21799,12.131268 -3.78289,3.91343 -7.56538,7.8263 -11.34865,11.74003 -7.85966,5.38098 -15.71813,10.7612 -23.57776,16.1424 -7.01136,4.56543 -14.02235,9.13072 -21.03409,13.69669 -11.60987,5.47859 -23.21866,10.95688 -34.8286,16.43593 -9.71807,3.06521 -19.43576,6.13049 -29.15424,9.19629 -4.33709,0.97798 -8.67415,1.95629 -13.01181,2.93501 -4.66347,0.16252 -9.32634,0.32578 -13.99011,0.48912 -4.01113,-0.098 -8.02192,-0.19592 -12.03346,-0.2935 -4.696047,-0.62007 -9.391609,-1.23961 -14.087997,-1.85885 -2.184705,-0.55476 -4.434677,-1.10915 -6.652635,-1.66316 -4.598317,-1.04407 -9.19592,-2.08746 -13.794462,-3.13062 -3.228284,-1.43538 -6.456605,-2.87019 -9.685489,-4.30467 -5.021979,-2.87034 -10.043807,-5.73993 -15.066274,-8.60933 -2.93467,-2.64192 -5.869603,-5.28335 -8.804986,-7.92445 -2.967248,-4.40292 -5.934797,-8.80536 -8.902795,-13.20746 -1.075782,-2.15269 -2.151939,-4.30504 -3.228509,-6.45702 -0.749591,-3.13085 -1.499707,-6.2617 -2.25016,-9.39195 3.75e-4,-3.39166 3.75e-4,-6.78351 0,-10.17464 0.22857,-1.30469 0.456953,-2.60927 0.684847,-3.91332 0.326529,-1.989008 0.652608,-3.978958 0.978311,-5.967858 2.380472,-4.95611 4.761619,-9.914099 7.141828,-14.870584 3.391623,-4.109011 6.783471,-8.218398 10.174644,-12.326958 1.989463,-2.152502 3.978925,-4.305042 5.967825,-6.457018 2.837011,-2.250123 5.674699,-4.500658 8.511448,-6.750443 2.348044,-1.239422 4.696388,-2.478881 7.043981,-3.717702 0.489456,-0.326529 0.978724,-0.65257 1.467504,-0.978311 C 59.862554,40.849373 58.654847,31.938434 57.447853,23.036014 56.698225,16.709308 55.948147,10.382564 55.197693,4.056383 54.741566,2.229885 54.284988,0.40357501 53.828035,-1.422248 c -0.847362,-3.7501295 -1.695399,-7.5009345 -2.543661,-11.250839 -0.814821,-2.902542 -1.630168,-5.870391 -2.445815,-8.804949 -0.553973,-1.728614 -1.108397,-3.457154 -1.663159,-5.185168 -0.293125,-1.500269 -0.586626,-3.000614 -0.880502,-4.50032 z"
       sodipodi:nodetypes="ccccccccccccccccccccccccccccccccccccccccccccccccccccccccccccccccc"
       inkscape:path-effect="#path-effect3872-6" />
    <path
       style="fill:url(#linearGradient5100);fill-opacity:1;fill-rule:nonzero;stroke:none;stroke-width:0.38800925;stroke-linecap:butt;stroke-linejoin:miter;stroke-miterlimit:4;stroke-dasharray:none;stroke-opacity:1"
       d="m 46.556207,-31.93036 c 0.260975,-0.76661 0.782736,-2.299275 2.787935,-4.33701 2.0052,-2.037734 5.495628,-4.582159 9.571722,-6.718004 4.076094,-2.135846 8.740044,-3.86446 14.984656,-5.543812 6.244611,-1.679353 14.072049,-3.310061 21.360414,-4.647067 7.288366,-1.337006 14.039226,-2.38062 22.093846,-3.309985 8.05461,-0.929365 17.41458,-1.744677 27.40961,-2.217518 9.99503,-0.472842 20.62669,-0.603309 30.83374,-0.211986 10.20705,0.391324 19.99072,1.304462 27.52377,2.119734 7.53304,0.815272 12.81621,1.532747 17.78921,2.527359 4.97301,0.994611 9.63668,2.266516 12.75094,3.277437 3.11426,1.010921 4.67967,1.761015 6.16333,2.739255 1.48367,0.978241 2.88609,2.184977 3.82596,3.361261 0.93986,1.176283 1.44063,2.378117 1.66895,4.090288 0.22832,1.712171 0.19573,3.961955 -0.76642,9.47396 -0.96214,5.512005 -2.85325,14.282839 -4.25555,20.951896 -1.4023,6.6690562 -2.31536,11.23438255 -2.98393,16.4361193 -0.66857,5.2017367 -1.09248,11.0385737 -1.43492,18.9144987 -0.34244,7.875926 -0.60331,17.788971 -0.75006,24.180799 -0.14675,6.391828 -0.17935,9.261493 -0.19565,11.00621 -0.0163,1.744717 -0.0163,2.364259 3.5244,2.706949 3.54071,0.34269 10.61287,0.407955 15.2109,0.734125 4.59803,0.326169 6.71787,0.913205 8.74775,1.650975 2.02987,0.737769 3.97043,1.626497 5.23409,2.262416 1.26365,0.635919 1.85022,1.018841 2.59472,1.875454 0.7445,0.856613 1.64484,2.184447 2.11471,3.49333 0.46986,1.308883 0.50826,2.597318 0.52746,3.241719 0.0192,0.644401 0.0192,0.644401 -0.0345,0.932234 -0.0537,0.287832 -0.16207,0.86843 -0.85236,2.903481 -0.69029,2.035052 -1.96121,5.52194 -3.9669,9.288797 -2.0057,3.766857 -4.74465,7.810045 -8.00593,11.788855 -3.26129,3.9788 -7.04373,7.8917 -12.86517,12.53909 -5.82144,4.64738 -13.67989,10.02763 -21.1154,15.00095 -7.43551,4.97332 -14.44648,9.53862 -23.75729,14.56094 -9.31081,5.02231 -20.91958,10.5006 -31.5836,14.77274 -10.66402,4.27214 -20.3817,7.33745 -27.40948,9.35937 -7.02778,2.02193 -11.36485,3.00022 -15.86543,3.57096 -4.50058,0.57074 -9.16349,0.73377 -13.50094,0.76638 -4.33744,0.0326 -8.34826,-0.0652 -12.70207,-0.42395 -4.35382,-0.35874 -9.049364,-0.9783 -12.490885,-1.56147 -3.441521,-0.58317 -5.68962,-1.14519 -9.097754,-1.94422 -3.408134,-0.79903 -8.00571,-1.84244 -11.91919,-3.0817 -3.913481,-1.23925 -7.141775,-2.67405 -11.267238,-4.82647 -4.125463,-2.15242 -9.147266,-5.02203 -13.125899,-7.77772 -3.978633,-2.75568 -6.913556,-5.3971 -9.86491,-8.91916 -2.951354,-3.52206 -5.91893,-7.92451 -7.940814,-11.20194 -2.021884,-3.27743 -3.098054,-5.42978 -4.01114,-8.07126 -0.913086,-2.64147 -1.663191,-5.77232 -2.038184,-9.03333 -0.374993,-3.26101 -0.374993,-6.65286 -0.260826,-9.0008 0.114166,-2.34793 0.342471,-3.65251 0.619608,-5.29904 0.277138,-1.646528 0.603357,-3.636479 1.956517,-7.109001 1.353161,-3.472522 3.734304,-8.430508 6.62029,-12.963227 2.885986,-4.53272 6.277859,-8.642099 8.968168,-11.77263 2.69031,-3.130531 4.679776,-5.283082 7.092762,-7.484091 2.412985,-2.201009 5.250658,-4.451563 7.843079,-6.196117 2.592422,-1.744554 4.940789,-2.983984 6.35933,-3.76666 1.418541,-0.782675 1.907747,-1.108806 1.549332,-5.719215 C 59.862531,40.84943 58.654814,31.938491 57.676495,24.323925 56.698176,16.709359 55.948099,10.382615 55.344793,6.3063067 54.741486,2.2299988 54.284907,0.40368893 53.63275,-2.3842931 52.980592,-5.172275 52.132585,-8.9230819 51.305234,-12.250459 c -0.827351,-3.327378 -1.651107,-6.292889 -2.335909,-8.624466 -0.684803,-2.331577 -1.239239,-4.060118 -1.663153,-5.674291 -0.423915,-1.614173 -0.717461,-3.114515 -0.86418,-3.864411 -0.146719,-0.749897 -0.14676,-0.750123 0.114215,-1.516733 z"
       id="path3870"
       inkscape:connector-curvature="0"
       inkscape:original-d="m 46.295232,-31.16375 c 0.522165,-1.533147 1.04394,-3.065807 1.565328,-4.598129 3.488711,-2.543323 6.979148,-5.087735 10.468141,-7.630983 4.663176,-1.728577 9.32714,-3.457154 13.990128,-5.185205 7.826248,-1.630731 15.653681,-3.261462 23.47994,-4.89163 6.750481,-1.04388 13.501351,-2.087459 20.251441,-3.130663 9.35915,-0.815609 18.71912,-1.630956 28.0781,-2.445777 10.63111,-0.130612 21.26277,-0.261224 31.89358,-0.391385 9.78333,0.912705 19.567,1.825823 29.34993,2.739316 5.28318,0.71705 10.56635,1.434513 15.84895,2.152352 4.66347,1.271361 9.32714,2.543285 13.99013,3.815472 1.56563,0.749628 3.13105,1.499707 4.69599,2.250161 1.40251,1.206093 2.80494,2.412824 4.20682,3.619818 0.48953,1.140975 0.97872,2.347631 1.4675,3.522009 -0.0323,2.250161 -0.0649,4.499945 -0.0978,6.750481 -1.89138,8.773535 -3.7825,17.544367 -5.67433,26.3171129 -0.91276,4.5653636 -1.82582,9.13069011 -2.73931,13.6966161 -0.42361,5.837513 -0.8475,11.674351 -1.27184,17.512127 -0.26051,9.914059 -0.52138,19.827104 -0.78267,29.741238 -0.0323,2.869515 -0.0649,5.73918 -0.0978,8.609332 3.8e-4,0.619279 3.8e-4,1.238821 0,1.858851 7.08141,0.06493 14.15357,0.130236 21.22978,0.195917 2.11998,0.586552 4.23981,1.173628 6.35915,1.761005 1.9405,0.888159 3.88106,1.776881 5.82106,2.665903 0.58739,0.382827 1.17397,0.765729 1.76099,1.149607 0.90214,1.329499 1.80246,2.657346 2.70336,3.986957 0.0389,1.288439 0.0772,2.576877 0.11519,3.865691 3.7e-4,-3.75e-4 3.7e-4,-3.75e-4 0,0 -0.10723,0.575704 -0.21566,1.156288 -0.32379,1.73492 -1.27234,3.491533 -2.54328,6.978413 -3.81549,10.468178 -2.7393,4.04394 -5.47827,8.08711 -8.21798,12.131268 -3.78291,3.91343 -7.56538,7.8263 -11.34864,11.74003 -7.85966,5.38098 -15.71813,10.7612 -23.57778,16.1424 -7.01137,4.56543 -14.02235,9.13072 -21.0341,13.69669 -11.60988,5.47859 -23.21866,10.95688 -34.82858,16.43593 -9.71809,3.06521 -19.43578,6.13049 -29.15425,9.19629 -4.33709,0.97798 -8.67415,1.95629 -13.0118,2.93501 -4.66347,0.16252 -9.32637,0.32578 -13.99013,0.48912 -4.01112,-0.098 -8.02193,-0.19592 -12.03347,-0.2935 -4.696042,-0.62007 -9.391589,-1.23961 -14.087966,-1.85885 -2.1847,-0.55476 -4.434707,-1.10915 -6.652646,-1.66316 -4.598335,-1.04407 -9.195916,-2.08746 -13.794466,-3.13062 -3.228298,-1.43538 -6.456589,-2.87019 -9.68547,-4.30467 -5.021993,-2.87034 -10.043807,-5.73993 -15.066296,-8.60933 -2.934678,-2.64192 -5.869592,-5.28335 -8.804975,-7.92445 -2.967237,-4.40292 -5.934819,-8.80536 -8.902814,-13.20746 -1.075755,-2.15269 -2.151939,-4.30504 -3.228486,-6.45702 -0.749613,-3.13085 -1.499725,-6.2617 -2.250168,-9.39195 3.9e-4,-3.39166 3.9e-4,-6.78351 0,-10.17464 0.228645,-1.30469 0.456945,-2.60927 0.68484,-3.91332 0.326379,-1.989008 0.652604,-3.978958 0.97833,-5.967858 2.38046,-4.95611 4.761596,-9.914099 7.141809,-14.870584 3.391619,-4.109011 6.783483,-8.218398 10.174644,-12.326958 1.989455,-2.152502 3.978933,-4.305042 5.967813,-6.457018 2.837019,-2.250123 5.674707,-4.500658 8.511478,-6.750443 2.348029,-1.239422 4.696381,-2.478881 7.043986,-3.717702 0.489455,-0.326529 0.97872,-0.65257 1.467496,-0.978311 C 59.862952,40.849373 58.655237,31.938434 57.448243,23.036014 56.698604,16.709308 55.948526,10.382564 55.198083,4.056383 54.741941,2.229885 54.285363,0.40357501 53.828422,-1.422248 52.981045,-5.1723775 52.13303,-8.9231825 51.28476,-12.673087 c -0.814825,-2.902542 -1.630164,-5.870391 -2.445826,-8.804949 -0.553951,-1.728614 -1.108389,-3.457154 -1.663162,-5.185168 -0.293088,-1.500269 -0.586615,-3.000614 -0.880499,-4.50032 z"
       sodipodi:nodetypes="ccccccccccccccccccccccccccccccccccccccccccccccccccccccccccccccccc"
       inkscape:path-effect="#path-effect3872" />
    <path
       style="fill:#ffd42a;fill-opacity:1;stroke:#000000;stroke-width:0.38739923px;stroke-linecap:butt;stroke-linejoin:miter;stroke-opacity:1"
       d="m 196.52845,106.85518 c -0.36898,0.23066 -1.24525,-2.76707 -3.27433,-6.08738 -2.02908,-3.320311 -5.21155,-6.964028 -8.69349,-10.469021 -3.48193,-3.504993 -7.26374,-6.871702 -11.69118,-11.068549 -4.42745,-4.196846 -9.5005,-9.22379 -12.79804,-14.227821 -3.29754,-5.004031 -4.81946,-9.98484 -4.77329,-15.565194 0.0462,-5.580354 1.66043,-11.760647 5.09625,-16.60292 3.43583,-4.842272 8.69378,-8.347569 13.58207,-9.13148 4.88828,-0.78391 9.40832,1.153244 12.53238,3.834707 3.12406,2.681464 4.85282,6.107723 6.1264,9.433815 1.27358,3.326091 2.09175,6.551486 2.64892,9.634578 0.55716,3.083093 0.85386,6.030035 0.87612,6.250817 0.0223,0.220781 -0.22927,-2.278028 0.15705,-4.997664 0.38632,-2.719636 1.4076,-5.647057 2.37092,-8.177753 0.96332,-2.530697 1.86959,-4.666723 3.63673,-6.863648 1.76713,-2.196924 4.39622,-4.457013 7.34758,-5.7251 2.95135,-1.268086 6.22633,-1.544843 9.45429,-0.53032 3.22795,1.014523 6.41053,3.320735 8.73945,6.087729 2.32892,2.766994 3.8046,5.995051 4.12754,10.837949 0.32293,4.842898 -0.50704,11.298264 -2.85915,16.694671 -2.35212,5.396407 -6.22547,9.730882 -10.26115,13.236252 -4.03567,3.505371 -8.23166,6.179722 -11.13762,9.062412 -2.90596,2.882691 -4.51992,5.972285 -6.15728,8.878028 -1.63735,2.905743 -3.29734,5.626283 -4.05843,8.716582 -0.7611,3.09031 -0.62276,6.54866 -0.99174,6.77931 z"
       id="path4914"
       inkscape:connector-curvature="0"
       inkscape:original-d="m 197.0358,110.08381 c -0.87588,-2.9981 -1.75214,-5.99583 -2.62879,-8.99318 -3.18156,-3.643498 -6.36403,-7.287218 -9.54662,-10.930238 -3.78134,-3.366998 -7.56312,-6.733737 -11.34526,-10.099988 -5.07273,-5.027421 -10.14579,-10.054354 -15.21927,-15.08095 -1.52153,-4.981218 -3.04345,-9.962025 -4.56576,-14.942493 1.61446,-6.180031 3.22871,-12.360324 4.84248,-18.539867 5.25756,-3.505158 10.51551,-7.010465 15.77268,-10.515098 4.51967,1.93643 9.03971,3.873573 13.55898,5.810978 1.7291,3.425778 3.45785,6.852043 5.18635,10.278909 0.81866,3.225431 1.63684,6.450824 2.45468,9.676818 0.29647,2.940263 0.59316,5.887206 0.88818,8.821764 -0.25053,-2.492993 -0.50205,-4.991803 -0.75436,-7.494254 1.02478,-2.936697 2.04604,-5.864124 3.06734,-8.792301 0.90531,-2.13321 1.81159,-4.269235 2.71679,-6.403271 2.62885,-2.259919 5.25793,-4.520025 7.88634,-6.779456 3.27431,-0.276987 6.54928,-0.553823 9.82332,-0.830134 3.18221,2.305295 6.3648,4.61149 9.54663,6.917836 1.47616,3.227871 2.95184,6.455929 4.42742,9.685001 -0.82984,6.45698 -1.65982,12.912346 -2.49042,19.369964 -3.87393,4.335179 -7.74729,8.669646 -11.62198,13.005576 -4.19675,2.674685 -8.39274,5.349033 -12.59048,8.024657 -1.61397,3.08994 -3.22792,6.179543 -4.84248,9.269899 -1.6602,2.72111 -3.32017,5.44166 -4.98085,8.16307 0.13879,3.459108 0.2771,6.917458 0.41508,10.376758 z"
       sodipodi:nodetypes="ccccccccccccccccccccccccc"
       inkscape:path-effect="#path-effect4916" />
    <a
       id="a4793"
       style="display:inline;fill:#ff7f2a;fill-opacity:1"
       transform="matrix(3.7532071,0,0,3.7532071,-48.383609,-514.73769)">
      <path
         sodipodi:nodetypes="ccccccccccccccccccccccccccccccccccccccc"
         inkscape:original-d="m 28.945682,149.29516 c 0.0034,1.01554 0.0066,2.03099 0.0098,3.04666 0.0082,3.34079 0.01626,6.68158 0.02424,10.02259 0.06961,0.67764 0.139125,1.35536 0.208533,2.03319 0.573668,0.57346 1.147029,1.14683 1.720389,1.72039 0.973254,0.55599 1.946405,1.11207 2.919452,1.66827 0.590925,0.31268 1.181786,0.62548 1.772524,0.93839 1.112204,0.31267 2.224447,0.62549 3.336515,0.93839 2.033168,0.2953 4.066483,0.59073 6.099568,0.88626 1.007966,0.0693 2.015915,0.13893 3.023718,0.20854 0.868905,0.0173 1.737871,0.0346 2.60665,0.0522 0.486623,-0.0522 0.973253,-0.10437 1.459724,-0.15641 1.198885,-0.0696 2.398223,-0.13912 3.597182,-0.20853 1.233808,-0.12174 2.467733,-0.24339 3.701448,-0.36493 0.903661,-0.10436 1.807379,-0.20863 2.710919,-0.3128 0.938377,-0.29549 1.876891,-0.59095 2.815182,-0.88626 1.459639,-0.53873 2.919555,-1.07752 4.379177,-1.61613 0.625649,-0.48663 1.251297,-0.97324 1.87679,-1.45972 1.0947,-0.66033 2.189693,-1.32081 3.284386,-1.98105 0.53875,-1.16429 1.077515,-2.32873 1.616122,-3.49293 -0.02594,-1.09477 -0.05203,-2.18968 -0.0782,-3.28437 -0.226528,-1.67925 -0.453158,-3.3584 -0.679891,-5.03746 0.07902,1.24461 0.157943,2.48933 0.236762,3.73413 -0.556048,1.04268 -1.112069,2.08522 -1.668261,3.12799 -0.608187,0.43438 -1.216334,0.86877 -1.824654,1.30332 -1.52943,0.83419 -3.058369,1.66815 -4.587709,2.50238 -1.581394,0.43438 -3.162636,0.86879 -4.744111,1.30334 -1.511871,0.29533 -3.023614,0.59074 -4.535574,0.88626 -1.859456,0.12154 -3.718722,0.24319 -5.578237,0.36493 -1.807283,0.0347 -3.614453,0.0693 -5.421834,0.10426 -1.859419,-0.19126 -3.718723,-0.38241 -5.578239,-0.57347 -1.546586,-0.31291 -3.093124,-0.62569 -4.639841,-0.93838 -1.216397,-0.4172 -2.432703,-0.83422 -3.649314,-1.2512 -0.927984,-0.58877 -1.855931,-1.17734 -2.7841,-1.76589 -0.431683,-0.36725 -0.863451,-0.73439 -1.295312,-1.10143 -0.08647,-0.17992 -0.173059,-0.35975 -0.259735,-0.53947 0.0072,-1.44011 0.01432,-2.88019 0.02132,-4.32028 -0.03476,-1.86273 -0.06961,-3.72499 -0.10458,-5.58758 0.0032,0.0122 0.0063,0.0245 0.0092,0.0369 z"
         inkscape:path-effect="#path-effect3876"
         inkscape:connector-curvature="0"
         id="path3874"
         d="m 28.947315,149.80293 c 0.0016,0.50777 0.0049,1.52322 0.01057,3.70145 0.0057,2.17823 0.01375,5.51902 0.05254,7.52835 0.03879,2.00933 0.108302,2.68705 0.429844,3.31274 0.321542,0.62569 0.894907,1.19906 1.66823,1.76384 0.773322,0.56479 1.746469,1.12088 2.528458,1.55532 0.781989,0.43444 1.372848,0.74724 2.224336,1.06003 0.851488,0.31279 1.963731,0.6256 3.536358,0.9297 1.572627,0.30409 3.605941,0.59953 5.126468,0.78199 1.520527,0.18247 2.528484,0.25198 3.46684,0.29544 0.938357,0.0435 1.807321,0.0609 2.485027,0.0435 0.677706,-0.0174 1.164339,-0.0695 2.007015,-0.13033 0.842677,-0.0608 2.042014,-0.13034 3.2584,-0.22591 1.216386,-0.0956 2.45031,-0.21723 3.518999,-0.33018 1.068688,-0.11295 1.972406,-0.21723 2.89337,-0.41706 0.920965,-0.19984 1.859479,-0.4953 3.058442,-0.91233 1.198962,-0.41703 2.658881,-0.95582 3.70151,-1.46846 1.04263,-0.51264 1.668276,-0.99925 2.528378,-1.57265 0.860102,-0.57339 1.955099,-1.23386 2.771789,-2.14616 0.816689,-0.91229 1.355456,-2.07673 1.611747,-3.2062 0.256291,-1.12948 0.230221,-2.22439 0.103869,-3.61135 -0.126353,-1.38696 -0.352983,-3.06611 -0.426836,-3.28334 -0.07385,-0.21723 0.0051,1.02749 -0.233511,2.17121 -0.238579,1.14373 -0.7946,2.18627 -1.376762,2.92487 -0.582162,0.7386 -1.190309,1.17298 -2.259184,1.80736 -1.068875,0.63437 -2.597812,1.46834 -4.15318,2.10266 -1.555367,0.63432 -3.136609,1.06873 -4.683283,1.43368 -1.546674,0.36495 -3.058419,0.66035 -4.744131,0.86889 -1.685712,0.20855 -3.544979,0.33018 -5.378381,0.40838 -1.833401,0.0782 -3.640568,0.11295 -5.473975,0.0347 -1.833407,-0.0782 -3.692712,-0.26934 -5.395769,-0.52132 -1.703058,-0.25198 -3.249596,-0.56476 -4.631164,-0.9297 -1.381567,-0.36494 -2.597873,-0.78196 -3.670187,-1.28484 -1.072313,-0.50288 -2.000258,-1.09145 -2.680191,-1.56936 -0.679933,-0.4779 -1.111701,-0.84505 -1.370885,-1.11855 -0.259184,-0.2735 -0.345767,-0.45333 -0.385491,-1.26328 -0.03973,-0.80994 -0.03262,-2.25002 -0.0465,-3.90143 -0.01388,-1.65141 -0.04873,-3.51367 -0.06464,-4.43885 -0.01591,-0.92517 -0.01284,-0.91287 -0.0113,-0.90669 0.0015,0.006 0.0015,0.006 0.0032,0.51385 z"
         style="display:inline;fill:#ff7f2a;fill-opacity:1;stroke:#040000;stroke-width:0.10321818px;stroke-linecap:butt;stroke-linejoin:miter;stroke-opacity:1"
         inkscape:label="path3874" />
      <path
         inkscape:label="path3874"
         style="display:inline;fill:url(#linearGradient5309);fill-opacity:1;stroke:none;stroke-width:0.10321818px;stroke-linecap:butt;stroke-linejoin:miter;stroke-opacity:1"
         d="m 28.947315,149.80293 c 0.0016,0.50777 0.0049,1.52322 0.01057,3.70145 0.0057,2.17823 0.01375,5.51902 0.05254,7.52835 0.03879,2.00933 0.108302,2.68705 0.429844,3.31274 0.321542,0.62569 0.894907,1.19906 1.66823,1.76384 0.773322,0.56479 1.746469,1.12088 2.528458,1.55532 0.781989,0.43444 1.372848,0.74724 2.224336,1.06003 0.851488,0.31279 1.963731,0.6256 3.536358,0.9297 1.572627,0.30409 3.605941,0.59953 5.126468,0.78199 1.520527,0.18247 2.528484,0.25198 3.46684,0.29544 0.938357,0.0435 1.807321,0.0609 2.485027,0.0435 0.677706,-0.0174 1.164339,-0.0695 2.007015,-0.13033 0.842677,-0.0608 2.042014,-0.13034 3.2584,-0.22591 1.216386,-0.0956 2.45031,-0.21723 3.518999,-0.33018 1.068688,-0.11295 1.972406,-0.21723 2.89337,-0.41706 0.920965,-0.19984 1.859479,-0.4953 3.058442,-0.91233 1.198962,-0.41703 2.658881,-0.95582 3.70151,-1.46846 1.04263,-0.51264 1.668276,-0.99925 2.528378,-1.57265 0.860102,-0.57339 1.955099,-1.23386 2.771789,-2.14616 0.816689,-0.91229 1.355456,-2.07673 1.611747,-3.2062 0.256291,-1.12948 0.230221,-2.22439 0.103869,-3.61135 -0.126353,-1.38696 -0.352983,-3.06611 -0.426836,-3.28334 -0.07385,-0.21723 0.0051,1.02749 -0.233511,2.17121 -0.238579,1.14373 -0.7946,2.18627 -1.376762,2.92487 -0.582162,0.7386 -1.190309,1.17298 -2.259184,1.80736 -1.068875,0.63437 -2.597812,1.46834 -4.15318,2.10266 -1.555367,0.63432 -3.136609,1.06873 -4.683283,1.43368 -1.546674,0.36495 -3.058419,0.66035 -4.744131,0.86889 -1.685712,0.20855 -3.544979,0.33018 -5.378381,0.40838 -1.833401,0.0782 -3.640568,0.11295 -5.473975,0.0347 -1.833407,-0.0782 -3.692712,-0.26934 -5.395769,-0.52132 -1.703058,-0.25198 -3.249596,-0.56476 -4.631164,-0.9297 -1.381567,-0.36494 -2.597873,-0.78196 -3.670187,-1.28484 -1.072313,-0.50288 -2.000258,-1.09145 -2.680191,-1.56936 -0.679933,-0.4779 -1.111701,-0.84505 -1.370885,-1.11855 -0.259184,-0.2735 -0.345767,-0.45333 -0.385491,-1.26328 -0.03973,-0.80994 -0.03262,-2.25002 -0.0465,-3.90143 -0.01388,-1.65141 -0.04873,-3.51367 -0.06464,-4.43885 -0.01591,-0.92517 -0.01284,-0.91287 -0.0113,-0.90669 0.0015,0.006 0.0015,0.006 0.0032,0.51385 z"
         id="path5299"
         inkscape:connector-curvature="0"
         inkscape:path-effect="#path-effect5301"
         inkscape:original-d="m 28.945682,149.29516 c 0.0034,1.01554 0.0066,2.03099 0.0098,3.04666 0.0082,3.34079 0.01626,6.68158 0.02424,10.02259 0.06961,0.67764 0.139125,1.35536 0.208533,2.03319 0.573668,0.57346 1.147029,1.14683 1.720389,1.72039 0.973254,0.55599 1.946405,1.11207 2.919452,1.66827 0.590925,0.31268 1.181786,0.62548 1.772524,0.93839 1.112204,0.31267 2.224447,0.62549 3.336515,0.93839 2.033168,0.2953 4.066483,0.59073 6.099568,0.88626 1.007966,0.0693 2.015915,0.13893 3.023718,0.20854 0.868905,0.0173 1.737871,0.0346 2.60665,0.0522 0.486623,-0.0522 0.973253,-0.10437 1.459724,-0.15641 1.198885,-0.0696 2.398223,-0.13912 3.597182,-0.20853 1.233808,-0.12174 2.467733,-0.24339 3.701448,-0.36493 0.903661,-0.10436 1.807379,-0.20863 2.710919,-0.3128 0.938377,-0.29549 1.876891,-0.59095 2.815182,-0.88626 1.459639,-0.53873 2.919555,-1.07752 4.379177,-1.61613 0.625649,-0.48663 1.251297,-0.97324 1.87679,-1.45972 1.0947,-0.66033 2.189693,-1.32081 3.284386,-1.98105 0.53875,-1.16429 1.077515,-2.32873 1.616122,-3.49293 -0.02594,-1.09477 -0.05203,-2.18968 -0.0782,-3.28437 -0.226528,-1.67925 -0.453158,-3.3584 -0.679891,-5.03746 0.07902,1.24461 0.157943,2.48933 0.236762,3.73413 -0.556048,1.04268 -1.112069,2.08522 -1.668261,3.12799 -0.608187,0.43438 -1.216334,0.86877 -1.824654,1.30332 -1.52943,0.83419 -3.058369,1.66815 -4.587709,2.50238 -1.581394,0.43438 -3.162636,0.86879 -4.744111,1.30334 -1.511871,0.29533 -3.023614,0.59074 -4.535574,0.88626 -1.859456,0.12154 -3.718722,0.24319 -5.578237,0.36493 -1.807283,0.0347 -3.614453,0.0693 -5.421834,0.10426 -1.859419,-0.19126 -3.718723,-0.38241 -5.578239,-0.57347 -1.546586,-0.31291 -3.093124,-0.62569 -4.639841,-0.93838 -1.216397,-0.4172 -2.432703,-0.83422 -3.649314,-1.2512 -0.927984,-0.58877 -1.855931,-1.17734 -2.7841,-1.76589 -0.431683,-0.36725 -0.863451,-0.73439 -1.295312,-1.10143 -0.08647,-0.17992 -0.173059,-0.35975 -0.259735,-0.53947 0.0072,-1.44011 0.01432,-2.88019 0.02132,-4.32028 -0.03476,-1.86273 -0.06961,-3.72499 -0.10458,-5.58758 0.0032,0.0122 0.0063,0.0245 0.0092,0.0369 z"
         sodipodi:nodetypes="ccccccccccccccccccccccccccccccccccccccc" />
    </a>
    <path
       sodipodi:nodetypes="cscsssscsscsssssscc"
       inkscape:connector-curvature="0"
       id="path5102"
       d="m 244.80616,-42.380171 c -7.15629,9.021846 -19.76815,9.338429 -31.52469,11.363209 -4.73521,0.815535 -8.60754,1.351005 -13.71246,1.917176 -6.81042,0.965588 -13.22368,1.892592 -19.7909,2.577027 -8.13183,0.847587 -16.39537,0.918185 -24.7027,1.493289 -12.32267,0.853141 -25.39232,0.716374 -38.10602,0.913117 -12.22501,0.189537 -26.463889,-0.586964 -38.252634,-1.418562 -9.415224,-0.664167 -25.27898,-2.182227 -29.163905,-3.013149 -1.620414,-0.219938 -3.062328,-1.172277 -2.92409,-2.755755 0.48842,-5.594793 12.341025,-12.026477 18.857628,-14.50851 1.306559,-0.497638 2.34675,-0.905949 3.082626,-1.038025 1.346354,-0.399979 2.724487,-0.833099 3.768558,-1.143039 1.229096,-0.364812 2.484799,-0.615638 3.710897,-0.950424 2.510317,-0.685336 5.0795,-1.162707 7.603573,-1.765584 6.714762,-1.603933 13.569435,-2.785518 20.465397,-3.900971 4.44135,-0.718326 9.02923,-1.238446 13.42532,-1.715816 14.2809,-1.550788 29.09707,-2.429076 43.34461,-2.632274 20.5615,-0.293126 52.44501,3.046703 63.46321,5.623392 6.889,2.3259 17.77209,3.343132 20.45558,10.954899 z"
       style="display:inline;fill:#ff5555;fill-opacity:1;fill-rule:evenodd;stroke:none;stroke-width:0.38800925;stroke-linecap:round;stroke-linejoin:miter;stroke-miterlimit:4;stroke-dasharray:none;stroke-opacity:1;paint-order:stroke markers fill" />
    <path
       style="display:inline;fill:url(#linearGradient5110);fill-opacity:1;fill-rule:evenodd;stroke:#000000;stroke-width:0.38800925;stroke-linecap:round;stroke-linejoin:miter;stroke-miterlimit:4;stroke-dasharray:none;stroke-opacity:1;paint-order:stroke markers fill"
       d="m 244.80616,-42.380171 c -7.15629,9.021846 -19.76815,9.338429 -31.52469,11.363209 -4.73521,0.815535 -8.60754,1.351005 -13.71246,1.917176 -6.81042,0.965588 -13.22368,1.892592 -19.7909,2.577027 -8.13183,0.847587 -16.39537,0.918185 -24.7027,1.493289 -12.32267,0.853141 -25.39232,0.716374 -38.10602,0.913117 -12.22501,0.189537 -26.463889,-0.586964 -38.252634,-1.418562 -9.415224,-0.664167 -25.27898,-2.182227 -29.163905,-3.013149 -1.620414,-0.219938 -3.062328,-1.172277 -2.92409,-2.755755 0.48842,-5.594793 12.341025,-12.026477 18.857628,-14.50851 1.306559,-0.497638 2.34675,-0.905949 3.082626,-1.038025 1.346354,-0.399979 2.724487,-0.833099 3.768558,-1.143039 1.229096,-0.364812 2.484799,-0.615638 3.710897,-0.950424 2.510317,-0.685336 5.0795,-1.162707 7.603573,-1.765584 6.714762,-1.603933 13.569435,-2.785518 20.465397,-3.900971 4.44135,-0.718326 9.02923,-1.238446 13.42532,-1.715816 14.2809,-1.550788 29.09707,-2.429076 43.34461,-2.632274 20.5615,-0.293126 52.44501,3.046703 63.46321,5.623392 6.889,2.3259 17.77209,3.343132 20.45558,10.954899 z"
       id="path4881"
       inkscape:connector-curvature="0"
       sodipodi:nodetypes="cscsssscsscsssssscc" />
    <g
       id="g5265"
       style="fill:#ffdd55;fill-rule:evenodd">
      <ellipse
         inkscape:label="innoGrad2"
         transform="matrix(3.0169699,1.1271775,-2.5263775,6.7620271,363.95164,-1022.1259)"
         cx="58.25304"
         cy="147.56238"
         rx="1.2946428"
         ry="0.93750006"
         id="path4495"
         style="opacity:1;fill:#ffdd55;fill-opacity:1;fill-rule:evenodd;stroke:none;stroke-width:0.1;stroke-linecap:round;stroke-linejoin:miter;stroke-miterlimit:4;stroke-dasharray:none;stroke-opacity:1;paint-order:stroke markers fill" />
      <ellipse
         inkscape:label="innoGrad2"
         transform="matrix(3.0169699,1.1271775,-2.5263775,6.7620271,406.95533,-1020.5589)"
         cx="58.25304"
         cy="147.56238"
         rx="1.2946428"
         ry="0.93750006"
         id="path4495-5"
         style="display:inline;opacity:1;fill:#ffdd55;fill-opacity:1;fill-rule:evenodd;stroke:none;stroke-width:0.1;stroke-linecap:round;stroke-linejoin:miter;stroke-miterlimit:4;stroke-dasharray:none;stroke-opacity:1;paint-order:stroke markers fill;enable-background:new" />
    </g>
  </g>
</svg>
