<?xml version="1.0" encoding="UTF-8" standalone="no"?>
<!-- Created with Inkscape (http://www.inkscape.org/) -->

<svg
   xmlns:osb="http://www.openswatchbook.org/uri/2009/osb"
   xmlns:dc="http://purl.org/dc/elements/1.1/"
   xmlns:cc="http://creativecommons.org/ns#"
   xmlns:rdf="http://www.w3.org/1999/02/22-rdf-syntax-ns#"
   xmlns:svg="http://www.w3.org/2000/svg"
   xmlns="http://www.w3.org/2000/svg"
   xmlns:xlink="http://www.w3.org/1999/xlink"
   xmlns:sodipodi="http://sodipodi.sourceforge.net/DTD/sodipodi-0.dtd"
   xmlns:inkscape="http://www.inkscape.org/namespaces/inkscape"
   sodipodi:docname="top_hat.svg"
   inkscape:version="0.92.1 r15371"
   inkscape:export-ydpi="96"
   inkscape:export-xdpi="96"
   id="svg8"
   version="1.1"
   viewBox="0 0 256 256"
   height="100%"
   width="100%"
   style="enable-background:new"
   enable-background="new"
   inkscape:export-filename="/home/bellu/workspace/java/mods-lilith/bicobus/items/clothing/topHat/top_hat_gradient.svg.png">
  <title
     id="title4508">Top Hat</title>
  <defs
     id="defs2">
    <inkscape:path-effect
       only_selected="false"
       apply_with_weight="true"
       apply_no_weight="true"
       helper_size="0"
       steps="2"
       weight="33.333333"
       is_visible="true"
       id="path-effect304431"
       effect="bspline" />
    <inkscape:path-effect
       effect="bspline"
       id="path-effect304411"
       is_visible="true"
       weight="33.333333"
       steps="2"
       helper_size="0"
       apply_no_weight="true"
       apply_with_weight="true"
       only_selected="false" />
    <linearGradient
       id="linearGradient11370"
       osb:paint="solid">
      <stop
         style="stop-color:#ff8080;stop-opacity:1;"
         offset="0"
         id="stop11368" />
    </linearGradient>
    <inkscape:path-effect
       only_selected="false"
       apply_with_weight="true"
       apply_no_weight="true"
       helper_size="0"
       steps="2"
       weight="33.333333"
       is_visible="true"
       id="path-effect11258"
       effect="bspline" />
    <linearGradient
       id="innoGrad-3"
       inkscape:collect="always">
      <stop
         id="stop5311"
         offset="0"
         style="stop-color:#ff9955;stop-opacity:1" />
      <stop
         id="stop5313"
         offset="1"
         style="stop-color:#000000;stop-opacity:0.35096154" />
    </linearGradient>
    <inkscape:path-effect
       only_selected="false"
       apply_with_weight="true"
       apply_no_weight="true"
       helper_size="0"
       steps="2"
       weight="33.333333"
       is_visible="true"
       id="path-effect5301"
       effect="bspline" />
    <linearGradient
       id="Body-7"
       osb:paint="gradient">
      <stop
         style="stop-color:#000000;stop-opacity:1;"
         offset="0"
         id="stop8890" />
      <stop
         style="stop-color:#ffe2ff;stop-opacity:0"
         offset="1"
         id="stop8892" />
    </linearGradient>
    <inkscape:path-effect
       effect="bspline"
       id="path-effect4916"
       is_visible="true"
       weight="33.333333"
       steps="2"
       helper_size="0"
       apply_no_weight="true"
       apply_with_weight="true"
       only_selected="false" />
    <inkscape:path-effect
       effect="bspline"
       id="path-effect3876"
       is_visible="true"
       weight="33.333333"
       steps="2"
       helper_size="0"
       apply_no_weight="true"
       apply_with_weight="true"
       only_selected="false" />
    <inkscape:path-effect
       effect="bspline"
       id="path-effect3872"
       is_visible="true"
       weight="33.333333"
       steps="2"
       helper_size="0"
       apply_no_weight="true"
       apply_with_weight="true"
       only_selected="false" />
    <inkscape:path-effect
       effect="bspline"
       id="path-effect3872-6"
       is_visible="true"
       weight="33.333333"
       steps="2"
       helper_size="0"
       apply_no_weight="true"
       apply_with_weight="true"
       only_selected="false" />
    <linearGradient
       inkscape:collect="always"
       xlink:href="#innoGrad-3"
       id="linearGradient5309"
       x1="21.758923"
       y1="159.49719"
       x2="60.631496"
       y2="159.82697"
       gradientUnits="userSpaceOnUse" />
  </defs>
  <sodipodi:namedview
     inkscape:measure-end="0,0"
     inkscape:measure-start="0,0"
     inkscape:object-paths="false"
     inkscape:window-maximized="1"
     inkscape:window-y="27"
     inkscape:window-x="0"
     inkscape:window-height="1009"
     inkscape:window-width="1920"
     inkscape:snap-smooth-nodes="false"
     showgrid="false"
     inkscape:current-layer="layer2"
     inkscape:document-units="mm"
     inkscape:cy="116.20789"
     inkscape:cx="155.14448"
     inkscape:zoom="4"
     inkscape:pageshadow="2"
     inkscape:pageopacity="0.0"
     borderopacity="1.0"
     bordercolor="#666666"
     pagecolor="#ffffff"
     id="base"
     units="px"
     scale-x="3"
     viewbox-width="80"
     viewbox-height="80"
     inkscape:pagecheckerboard="false"
     width="4"
     height="4"
     fit-margin-top="0"
     fit-margin-left="0"
     fit-margin-right="0"
     fit-margin-bottom="0"
     inkscape:snap-to-guides="false"
     inkscape:snap-grids="true"
     inkscape:snap-others="true"
     inkscape:object-nodes="false"
     inkscape:snap-nodes="true"
     inkscape:snap-intersection-paths="true"
     inkscape:snap-object-midpoints="true"
     inkscape:snap-bbox="true">
    <inkscape:grid
       type="xygrid"
       id="grid5112" />
  </sodipodi:namedview>
  <metadata
     id="metadata5">
    <rdf:RDF>
      <cc:Work
         rdf:about="">
        <dc:format>image/svg+xml</dc:format>
        <dc:type
           rdf:resource="http://purl.org/dc/dcmitype/StillImage" />
        <dc:title>Top Hat</dc:title>
        <cc:license
           rdf:resource="http://artlibre.org/licence/lal" />
        <dc:creator>
          <cc:Agent>
            <dc:title>Bicobus &lt;bicobus@keemail.me&gt;</dc:title>
          </cc:Agent>
        </dc:creator>
        <dc:relation />
        <dc:description>Lilith's throne object art</dc:description>
      </cc:Work>
      <cc:License
         rdf:about="http://artlibre.org/licence/lal">
        <cc:permits
           rdf:resource="http://creativecommons.org/ns#Reproduction" />
        <cc:permits
           rdf:resource="http://creativecommons.org/ns#Distribution" />
        <cc:permits
           rdf:resource="http://creativecommons.org/ns#DerivativeWorks" />
        <cc:requires
           rdf:resource="http://creativecommons.org/ns#ShareAlike" />
        <cc:requires
           rdf:resource="http://creativecommons.org/ns#Notice" />
        <cc:requires
           rdf:resource="http://creativecommons.org/ns#Attribution" />
      </cc:License>
    </rdf:RDF>
  </metadata>
  <g
     inkscape:groupmode="layer"
     id="layer2"
     inkscape:label="Calque 2"
     style="display:inline"
     transform="translate(-17.940446,73.0766)">
    <path
       style="display:inline;fill:#ff8080;fill-opacity:1;fill-rule:evenodd;stroke:#000000;stroke-width:0.38800925;stroke-linecap:butt;stroke-linejoin:miter;stroke-miterlimit:4;stroke-dasharray:none;stroke-opacity:1;enable-background:new"
       d="m 46.556208,-31.930358 c 0.260971,-0.766608 0.782727,-2.299273 2.787927,-4.337011 2.005201,-2.037738 5.495635,-4.582166 9.571723,-6.718008 4.076088,-2.135843 8.740035,-3.864457 14.984652,-5.543811 6.244617,-1.679353 14.072048,-3.310059 21.360413,-4.647065 7.288367,-1.337006 14.039217,-2.380618 22.093837,-3.309984 8.05462,-0.929366 17.41459,-1.744679 27.40961,-2.21752 9.99502,-0.472841 20.62669,-0.603308 30.83375,-0.211984 10.20705,0.391324 19.99072,1.304462 27.52375,2.119732 7.53303,0.815269 12.81624,1.532749 17.78924,2.52736 4.97301,0.994611 9.63667,2.266515 12.75092,3.277434 3.11425,1.010919 4.67966,1.761015 6.16333,2.739264 1.48367,0.97825 2.88609,2.184981 3.82595,3.36126 0.93986,1.176278 1.44063,2.378112 1.66893,4.090293 0.22831,1.712182 0.19568,3.961944 -0.76648,9.473952 -0.96216,5.512007 -2.85327,14.282835 -4.25557,20.951891 -1.4023,6.6690554 -2.31536,11.23438555 -2.98393,16.4361218 -0.66857,5.2017362 -1.09247,11.0385762 -1.43491,18.9145002 -0.34243,7.875924 -0.60331,17.78897 -0.7501,24.180806 -0.14678,6.391836 -0.17945,9.261483 -0.19578,11.006201 -0.0163,1.744718 -0.0163,2.36426 3.52436,2.70695 3.5407,0.34269 10.61287,0.407955 15.21089,0.734122 4.59803,0.326168 6.71789,0.91321 8.74777,1.650982 2.02988,0.737772 3.97044,1.626498 5.23409,2.262414 1.26364,0.635916 1.85021,1.018845 2.59471,1.87546 0.7445,0.856614 1.64484,2.184448 2.1147,3.493328 0.46987,1.30888 0.50828,2.597315 0.52748,3.241714 0.0192,0.6444 0.0192,0.6444 -0.0345,0.932239 -0.0537,0.28784 -0.16213,0.868438 -0.85243,2.903483 -0.6903,2.035046 -1.96121,5.521927 -3.96691,9.28879 -2.0057,3.766863 -4.74464,7.810037 -8.00592,11.788844 -3.26129,3.9788 -7.04375,7.8917 -12.86519,12.5391 -5.82143,4.64739 -13.67988,10.02764 -21.11538,15.00095 -7.4355,4.97331 -14.44648,9.53862 -23.75728,14.56093 -9.3108,5.02231 -20.91959,10.50061 -31.5836,14.77275 -10.66402,4.27214 -20.3817,7.33744 -27.40949,9.35937 -7.02778,2.02193 -11.36485,3.00022 -15.86543,3.57096 -4.50059,0.57074 -9.16347,0.73377 -13.50093,0.76638 -4.33745,0.0326 -8.34825,-0.0652 -12.70207,-0.42395 -4.353815,-0.35874 -9.049375,-0.9783 -12.490903,-1.56147 -3.441529,-0.58317 -5.689594,-1.14519 -9.097728,-1.94422 -3.408134,-0.79903 -8.005732,-1.84244 -11.919203,-3.08169 -3.913471,-1.23925 -7.141791,-2.67406 -11.26725,-4.82648 -4.125458,-2.15242 -9.147271,-5.02203 -13.125893,-7.77772 -3.978623,-2.75568 -6.913557,-5.39711 -9.864911,-8.91917 -2.951355,-3.52206 -5.918916,-7.92449 -7.940804,-11.20193 -2.021888,-3.27743 -3.098059,-5.42978 -4.011149,-8.07125 -0.91309,-2.64147 -1.663192,-5.77233 -2.038184,-9.03334 -0.374992,-3.26101 -0.374992,-6.65286 -0.260825,-9.00079 0.114166,-2.34793 0.342475,-3.65252 0.619613,-5.29906 0.277137,-1.646543 0.603346,-3.636472 1.956507,-7.108994 1.353161,-3.472521 3.734312,-8.430509 6.620301,-12.963227 2.885989,-4.532719 6.277855,-8.64209 8.96817,-11.772625 2.690315,-3.130535 4.679776,-5.283076 7.092763,-7.484089 2.412986,-2.201014 5.250655,-4.451573 7.843074,-6.196128 2.592419,-1.744554 4.940779,-2.983981 6.359316,-3.766654 1.418537,-0.782673 1.907745,-1.108804 1.549335,-5.719213 C 59.862129,40.849431 58.654418,31.938492 57.676102,24.323926 56.697787,16.70936 55.947709,10.382616 55.344404,6.306309 54.741098,2.2300021 54.28452,0.40369199 53.632363,-2.3842899 52.980206,-5.1722719 52.132199,-8.9230836 51.30485,-12.25046 c -0.82735,-3.327377 -1.651102,-6.292891 -2.335903,-8.62447 -0.684801,-2.331579 -1.239235,-4.060116 -1.66315,-5.674291 -0.423914,-1.614175 -0.71746,-3.114512 -0.864179,-3.864407 -0.14672,-0.749896 -0.146382,-0.750122 0.11459,-1.51673 z"
       id="path3870-2"
       inkscape:connector-curvature="0"
       inkscape:original-d="m 46.295236,-31.16375 c 0.522146,-1.533147 1.043917,-3.065807 1.565312,-4.598129 3.488719,-2.543323 6.979164,-5.087735 10.468145,-7.630983 4.663172,-1.728577 9.327133,-3.457154 13.990117,-5.185205 7.826263,-1.630731 15.653689,-3.261462 23.479951,-4.89163 6.750479,-1.04388 13.501339,-2.087459 20.251439,-3.130663 9.35915,-0.815609 18.71912,-1.630956 28.07808,-2.445777 10.63111,-0.130612 21.26278,-0.261224 31.89359,-0.391385 9.78334,0.912705 19.56701,1.825823 29.34993,2.739316 5.28316,0.71705 10.56637,1.434513 15.84897,2.152352 4.66347,1.271361 9.32713,2.543285 13.99012,3.815472 1.56561,0.749628 3.13103,1.499707 4.69597,2.250161 1.40254,1.206093 2.80496,2.412824 4.20682,3.619818 0.48953,1.140975 0.97872,2.347631 1.4675,3.522009 -0.0338,2.250161 -0.0649,4.499945 -0.0979,6.750481 -1.8914,8.773535 -3.78249,17.544367 -5.67433,26.3171129 -0.91274,4.5653636 -1.82582,9.13069011 -2.73931,13.6966161 -0.42359,5.837513 -0.84752,11.674351 -1.27182,17.512127 -0.26047,9.914059 -0.52139,19.827104 -0.78269,29.741238 -0.0338,2.869515 -0.0649,5.73918 -0.098,8.609332 3.8e-4,0.619279 3.8e-4,1.238821 0,1.858851 7.0814,0.06493 14.15357,0.130236 21.22979,0.195917 2.11996,0.586552 4.23981,1.173628 6.35914,1.761005 1.94052,0.888159 3.88108,1.776881 5.82107,2.665903 0.58738,0.382827 1.17397,0.765729 1.76097,1.149607 0.90216,1.329499 1.80248,2.657346 2.70336,3.986957 0.039,1.288439 0.0773,2.576877 0.11522,3.865691 3.8e-4,-3.75e-4 3.8e-4,-3.75e-4 0,0 -0.10734,0.575704 -0.21581,1.156288 -0.3239,1.73492 -1.27234,3.491533 -2.54325,6.978413 -3.81547,10.468178 -2.73932,4.04394 -5.47826,8.08711 -8.21799,12.131268 -3.78289,3.91343 -7.56538,7.8263 -11.34865,11.74003 -7.85966,5.38098 -15.71813,10.7612 -23.57776,16.1424 -7.01136,4.56543 -14.02235,9.13072 -21.03409,13.69669 -11.60987,5.47859 -23.21866,10.95688 -34.8286,16.43593 -9.71807,3.06521 -19.43576,6.13049 -29.15424,9.19629 -4.33709,0.97798 -8.67415,1.95629 -13.01181,2.93501 -4.66347,0.16252 -9.32634,0.32578 -13.99011,0.48912 -4.01113,-0.098 -8.02192,-0.19592 -12.03346,-0.2935 -4.696047,-0.62007 -9.391609,-1.23961 -14.087997,-1.85885 -2.184705,-0.55476 -4.434677,-1.10915 -6.652635,-1.66316 -4.598317,-1.04407 -9.19592,-2.08746 -13.794462,-3.13062 -3.228284,-1.43538 -6.456605,-2.87019 -9.685489,-4.30467 -5.021979,-2.87034 -10.043807,-5.73993 -15.066274,-8.60933 -2.93467,-2.64192 -5.869603,-5.28335 -8.804986,-7.92445 -2.967248,-4.40292 -5.934797,-8.80536 -8.902795,-13.20746 -1.075782,-2.15269 -2.151939,-4.30504 -3.228509,-6.45702 -0.749591,-3.13085 -1.499707,-6.2617 -2.25016,-9.39195 3.75e-4,-3.39166 3.75e-4,-6.78351 0,-10.17464 0.22857,-1.30469 0.456953,-2.60927 0.684847,-3.91332 0.326529,-1.989008 0.652608,-3.978958 0.978311,-5.967858 2.380472,-4.95611 4.761619,-9.914099 7.141828,-14.870584 3.391623,-4.109011 6.783471,-8.218398 10.174644,-12.326958 1.989463,-2.152502 3.978925,-4.305042 5.967825,-6.457018 2.837011,-2.250123 5.674699,-4.500658 8.511448,-6.750443 2.348044,-1.239422 4.696388,-2.478881 7.043981,-3.717702 0.489456,-0.326529 0.978724,-0.65257 1.467504,-0.978311 C 59.862554,40.849373 58.654847,31.938434 57.447853,23.036014 56.698225,16.709308 55.948147,10.382564 55.197693,4.056383 54.741566,2.229885 54.284988,0.40357501 53.828035,-1.422248 c -0.847362,-3.7501295 -1.695399,-7.5009345 -2.543661,-11.250839 -0.814821,-2.902542 -1.630168,-5.870391 -2.445815,-8.804949 -0.553973,-1.728614 -1.108397,-3.457154 -1.663159,-5.185168 -0.293125,-1.500269 -0.586626,-3.000614 -0.880502,-4.50032 z"
       sodipodi:nodetypes="ccccccccccccccccccccccccccccccccccccccccccccccccccccccccccccccccc"
       inkscape:path-effect="#path-effect3872-6" />
    <path
       style="fill:#ffd42a;fill-opacity:1;stroke:#000000;stroke-width:0.38739923px;stroke-linecap:butt;stroke-linejoin:miter;stroke-opacity:1"
       d="m 196.52845,106.85518 c -0.36898,0.23066 -1.24525,-2.76707 -3.27433,-6.08738 -2.02908,-3.320311 -5.21155,-6.964028 -8.69349,-10.469021 -3.48193,-3.504993 -7.26374,-6.871702 -11.69118,-11.068549 -4.42745,-4.196846 -9.5005,-9.22379 -12.79804,-14.227821 -3.29754,-5.004031 -4.81946,-9.98484 -4.77329,-15.565194 0.0462,-5.580354 1.66043,-11.760647 5.09625,-16.60292 3.43583,-4.842272 8.69378,-8.347569 13.58207,-9.13148 4.88828,-0.78391 9.40832,1.153244 12.53238,3.834707 3.12406,2.681464 4.85282,6.107723 6.1264,9.433815 1.27358,3.326091 2.09175,6.551486 2.64892,9.634578 0.55716,3.083093 0.85386,6.030035 0.87612,6.250817 0.0223,0.220781 -0.22927,-2.278028 0.15705,-4.997664 0.38632,-2.719636 1.4076,-5.647057 2.37092,-8.177753 0.96332,-2.530697 1.86959,-4.666723 3.63673,-6.863648 1.76713,-2.196924 4.39622,-4.457013 7.34758,-5.7251 2.95135,-1.268086 6.22633,-1.544843 9.45429,-0.53032 3.22795,1.014523 6.41053,3.320735 8.73945,6.087729 2.32892,2.766994 3.8046,5.995051 4.12754,10.837949 0.32293,4.842898 -0.50704,11.298264 -2.85915,16.694671 -2.35212,5.396407 -6.22547,9.730882 -10.26115,13.236252 -4.03567,3.505371 -8.23166,6.179722 -11.13762,9.062412 -2.90596,2.882691 -4.51992,5.972285 -6.15728,8.878028 -1.63735,2.905743 -3.29734,5.626283 -4.05843,8.716582 -0.7611,3.09031 -0.62276,6.54866 -0.99174,6.77931 z"
       id="path4914"
       inkscape:connector-curvature="0"
       inkscape:original-d="m 197.0358,110.08381 c -0.87588,-2.9981 -1.75214,-5.99583 -2.62879,-8.99318 -3.18156,-3.643498 -6.36403,-7.287218 -9.54662,-10.930238 -3.78134,-3.366998 -7.56312,-6.733737 -11.34526,-10.099988 -5.07273,-5.027421 -10.14579,-10.054354 -15.21927,-15.08095 -1.52153,-4.981218 -3.04345,-9.962025 -4.56576,-14.942493 1.61446,-6.180031 3.22871,-12.360324 4.84248,-18.539867 5.25756,-3.505158 10.51551,-7.010465 15.77268,-10.515098 4.51967,1.93643 9.03971,3.873573 13.55898,5.810978 1.7291,3.425778 3.45785,6.852043 5.18635,10.278909 0.81866,3.225431 1.63684,6.450824 2.45468,9.676818 0.29647,2.940263 0.59316,5.887206 0.88818,8.821764 -0.25053,-2.492993 -0.50205,-4.991803 -0.75436,-7.494254 1.02478,-2.936697 2.04604,-5.864124 3.06734,-8.792301 0.90531,-2.13321 1.81159,-4.269235 2.71679,-6.403271 2.62885,-2.259919 5.25793,-4.520025 7.88634,-6.779456 3.27431,-0.276987 6.54928,-0.553823 9.82332,-0.830134 3.18221,2.305295 6.3648,4.61149 9.54663,6.917836 1.47616,3.227871 2.95184,6.455929 4.42742,9.685001 -0.82984,6.45698 -1.65982,12.912346 -2.49042,19.369964 -3.87393,4.335179 -7.74729,8.669646 -11.62198,13.005576 -4.19675,2.674685 -8.39274,5.349033 -12.59048,8.024657 -1.61397,3.08994 -3.22792,6.179543 -4.84248,9.269899 -1.6602,2.72111 -3.32017,5.44166 -4.98085,8.16307 0.13879,3.459108 0.2771,6.917458 0.41508,10.376758 z"
       sodipodi:nodetypes="ccccccccccccccccccccccccc"
       inkscape:path-effect="#path-effect4916" />
    <a
       id="a4793"
       style="display:inline;fill:#ff7f2a;fill-opacity:1"
       transform="matrix(3.7532071,0,0,3.7532071,-48.383609,-514.73769)">
      <path
         sodipodi:nodetypes="cccccccccccccccccccccccccccccccccccccccc"
         inkscape:original-d="m 28.945682,149.29516 c 0.0034,1.01554 0.0066,2.03099 0.0098,3.04666 0.0082,3.34079 0.01626,6.68158 0.02424,10.02259 0.06961,0.67764 0.139125,1.35536 0.208533,2.03319 0.573668,0.57346 1.147029,1.14683 1.720389,1.72039 0.973254,0.55599 1.946405,1.11207 2.919452,1.66827 0.590925,0.31268 1.181786,0.62548 1.772524,0.93839 1.112204,0.31267 2.224447,0.62549 3.336515,0.93839 2.033168,0.2953 4.066483,0.59073 6.099568,0.88626 1.007966,0.0693 2.015915,0.13893 3.023718,0.20854 0.868905,0.0173 1.737871,0.0346 2.60665,0.0522 0.486623,-0.0522 0.973253,-0.10437 1.459724,-0.15641 1.198885,-0.0696 2.398223,-0.13912 3.597182,-0.20853 1.233808,-0.12174 2.467733,-0.24339 3.701448,-0.36493 0.903661,-0.10436 1.807379,-0.20863 2.710919,-0.3128 0.938377,-0.29549 1.876891,-0.59095 2.815182,-0.88626 1.459639,-0.53873 2.919555,-1.07752 4.379177,-1.61613 0.625649,-0.48663 1.251297,-0.97324 1.87679,-1.45972 1.0947,-0.66033 2.189693,-1.32081 3.284386,-1.98105 0.53875,-1.16429 1.077515,-2.32873 1.616122,-3.49293 -0.02594,-1.09477 -0.05203,-2.18968 -0.0782,-3.28437 -0.226528,-1.67925 -0.453158,-3.3584 -0.679891,-5.03746 0.07902,1.24461 0.157943,2.48933 0.236762,3.73413 -0.556048,1.04268 -1.112069,2.08522 -1.668261,3.12799 -0.608187,0.43438 -1.216334,0.86877 -1.824654,1.30332 -1.52943,0.83419 -3.058369,1.66815 -4.587709,2.50238 -1.581394,0.43438 -3.162636,0.86879 -4.744111,1.30334 -1.511871,0.29533 -3.023614,0.59074 -4.535574,0.88626 -1.859456,0.12154 -3.718722,0.24319 -5.578237,0.36493 -1.807283,0.0347 -3.614453,0.0693 -5.421834,0.10426 -1.859419,-0.19126 -3.718723,-0.38241 -5.578239,-0.57347 -1.546586,-0.31291 -3.093124,-0.62569 -4.639841,-0.93838 -1.216397,-0.4172 -2.432703,-0.83422 -3.649314,-1.2512 -0.927984,-0.58877 -1.855931,-1.17734 -2.7841,-1.76589 -0.431683,-0.36725 -0.863451,-0.73439 -1.295312,-1.10143 -0.08647,-0.17992 -0.173059,-0.35975 -0.259735,-0.53947 0.0072,-1.44011 0.01432,-2.88019 0.02132,-4.32028 -0.03476,-1.86273 -0.06961,-3.72499 -0.10458,-5.58758 0.0032,0.0122 0.0063,0.0245 0.0092,0.0369 z"
         inkscape:path-effect="#path-effect3876"
         inkscape:connector-curvature="0"
         id="path3874"
         d="m 28.947315,149.80293 c 0.0016,0.50777 0.0049,1.52322 0.01057,3.70145 0.0057,2.17823 0.01375,5.51902 0.05254,7.52835 0.03879,2.00933 0.108302,2.68705 0.429844,3.31274 0.321542,0.62569 0.894907,1.19906 1.66823,1.76384 0.773322,0.56479 1.746469,1.12088 2.528458,1.55532 0.781989,0.43444 1.372848,0.74724 2.224336,1.06003 0.851488,0.31279 1.963731,0.6256 3.536358,0.9297 1.572627,0.30409 3.605941,0.59953 5.126468,0.78199 1.520527,0.18247 2.528484,0.25198 3.46684,0.29544 0.938357,0.0435 1.807321,0.0609 2.485027,0.0435 0.677706,-0.0174 1.164339,-0.0695 2.007015,-0.13033 0.842677,-0.0608 2.042014,-0.13034 3.2584,-0.22591 1.216386,-0.0956 2.45031,-0.21723 3.518999,-0.33018 1.068688,-0.11295 1.972406,-0.21723 2.89337,-0.41706 0.920965,-0.19984 1.859479,-0.4953 3.058442,-0.91233 1.198962,-0.41703 2.658881,-0.95582 3.70151,-1.46846 1.04263,-0.51264 1.668276,-0.99925 2.528378,-1.57265 0.860102,-0.57339 1.955099,-1.23386 2.771789,-2.14616 0.816689,-0.91229 1.355456,-2.07673 1.611747,-3.2062 0.256291,-1.12948 0.230221,-2.22439 0.103869,-3.61135 -0.126353,-1.38696 -0.352983,-3.06611 -0.426836,-3.28334 -0.07385,-0.21723 0.0051,1.02749 -0.233511,2.17121 -0.238579,1.14373 -0.7946,2.18627 -1.376762,2.92487 -0.582162,0.7386 -1.190309,1.17298 -2.259184,1.80736 -1.068875,0.63437 -2.597812,1.46834 -4.15318,2.10266 -1.555367,0.63432 -3.136609,1.06873 -4.683283,1.43368 -1.546674,0.36495 -3.058419,0.66035 -4.744131,0.86889 -1.685712,0.20855 -3.544979,0.33018 -5.378381,0.40838 -1.833401,0.0782 -3.640568,0.11295 -5.473975,0.0347 -1.833407,-0.0782 -3.692712,-0.26934 -5.395769,-0.52132 -1.703058,-0.25198 -3.249596,-0.56476 -4.631164,-0.9297 -1.381567,-0.36494 -2.597873,-0.78196 -3.670187,-1.28484 -1.072313,-0.50288 -2.000258,-1.09145 -2.680191,-1.56936 -0.679933,-0.4779 -1.111701,-0.84505 -1.370885,-1.11855 -0.259184,-0.2735 -0.345767,-0.45333 -0.385491,-1.26328 -0.03973,-0.80994 -0.03262,-2.25002 -0.0465,-3.90143 -0.01388,-1.65141 -0.04873,-3.51367 -0.06464,-4.43885 -0.01591,-0.92517 -0.01284,-0.91287 -0.0113,-0.90669 0.0015,0.006 0.0015,0.006 0.0032,0.51385 z"
         style="display:inline;fill:#ffb380;fill-opacity:1;stroke:#040000;stroke-width:0.10321818px;stroke-linecap:butt;stroke-linejoin:miter;stroke-opacity:1"
         inkscape:label="path3874" />
      <path
         style="display:inline;fill:url(#linearGradient5309);fill-opacity:1;stroke:none;stroke-width:0.10321818px;stroke-linecap:butt;stroke-linejoin:miter;stroke-opacity:1"
         d="m 29.031306,158.83822 c 0.01053,0.47133 0.0104,0.94402 0.0158,1.39793 0.0052,0.43731 0.01599,0.85702 0.02319,1.24901 0.004,0.21963 0.01267,0.42978 0.02097,0.62789 0.03848,0.9187 0.08151,1.60231 0.400113,2.22517 0.100648,0.20389 0.244919,0.39345 0.39595,0.58794 0.106662,0.13735 0.236912,0.26632 0.364977,0.40155 0.24855,0.26246 0.552653,0.4923 0.892773,0.74452 0.763512,0.56619 1.736659,1.11336 2.518648,1.5478 0.781989,0.43444 1.377625,0.74558 2.229113,1.05837 0.851488,0.31279 1.961927,0.62428 3.534554,0.92838 1.572627,0.30409 3.595339,0.60001 5.115866,0.78247 1.520527,0.18247 2.50935,0.24704 3.447706,0.2905 0.938357,0.0435 1.808793,0.0629 2.486499,0.0455 0.677706,-0.0174 1.157663,-0.0725 2.000339,-0.13337 0.842677,-0.0608 2.043055,-0.1293 3.259441,-0.22487 1.216386,-0.0956 2.466248,-0.21818 3.534937,-0.33113 1.068688,-0.11295 1.945912,-0.21428 2.866876,-0.41411 0.920965,-0.19984 1.850648,-0.48647 3.049611,-0.9035 1.198962,-0.41703 2.644162,-0.95288 3.686791,-1.46552 1.04263,-0.51264 1.67122,-0.99925 2.531322,-1.57265 0.860102,-0.57339 1.934493,-1.21031 2.751183,-2.12261 0.816689,-0.91229 1.361343,-2.06495 1.617634,-3.19442 0.256291,-1.12948 0.230221,-2.21262 0.103869,-3.59958 -0.126353,-1.38696 -0.329434,-2.83649 -0.367961,-3.00368 -0.0042,0.0324 -0.0082,0.26747 -0.02628,0.56135 -0.01269,0.20634 -0.03531,0.44166 -0.05699,0.65617 -0.03503,0.34669 -0.102606,0.62757 -0.114917,0.68581 -0.04167,0.19601 -0.08041,0.37681 -0.148055,0.56605 -0.05388,0.19413 -0.117971,0.38426 -0.193169,0.56305 -0.09414,0.22382 -0.189741,0.45219 -0.303021,0.6554 -0.121385,0.21774 -0.237756,0.43125 -0.366134,0.63225 -0.121902,0.19086 -0.255497,0.37044 -0.382573,0.53167 -0.582162,0.7386 -1.197669,1.17445 -2.266544,1.80883 -1.068875,0.63437 -2.59634,1.46981 -4.151708,2.10413 -1.555367,0.63432 -3.132193,1.06873 -4.678867,1.43368 -1.546674,0.36495 -3.079025,0.66624 -4.764737,0.87478 -1.685712,0.20855 -3.553811,0.32135 -5.387213,0.39955 -1.833401,0.0782 -3.643512,0.11883 -5.476919,0.0406 -1.833407,-0.0782 -3.680936,-0.26934 -5.383993,-0.52132 -1.703058,-0.25198 -3.258428,-0.56476 -4.639996,-0.9297 -1.381567,-0.36494 -2.618479,-0.7849 -3.690793,-1.28778 -0.526383,-0.24686 -1.065821,-0.53905 -1.532929,-0.82384 -0.257743,-0.15715 -0.497742,-0.30555 -0.700735,-0.44157 -0.101679,-0.0681 -0.192727,-0.12945 -0.275389,-0.18795 -0.0625,-0.0442 -0.130567,-0.0888 -0.181801,-0.12403 -0.108247,-0.0744 -0.275274,-0.19591 -0.437333,-0.31948 -0.1669,-0.12728 -0.328972,-0.25689 -0.447066,-0.35257 -0.08884,-0.072 -0.166862,-0.14085 -0.229306,-0.19854 -0.224584,-0.20746 -0.400257,-0.36956 -0.514426,-0.60434 l -0.06998,-0.24169 z"
         id="path5299"
         inkscape:connector-curvature="0"
         sodipodi:nodetypes="cssscssssscccsccscsscccscssccsssscsscscssssssssssccc"
         inkscape:label="innoGrad2" />
    </a>
    <path
       sodipodi:nodetypes="cscsssscsscsssssscsc"
       inkscape:connector-curvature="0"
       id="path5102"
       d="m 244.80616,-42.380171 c -7.15629,9.021846 -19.76815,9.338429 -31.52469,11.363209 -4.73521,0.815535 -8.60754,1.351005 -13.71246,1.917176 -6.81042,0.965588 -13.22368,1.892592 -19.7909,2.577027 -8.13183,0.847587 -16.39537,0.918185 -24.7027,1.493289 -12.32267,0.853141 -25.39232,0.716374 -38.10602,0.913117 -12.22501,0.189537 -26.463889,-0.586964 -38.252634,-1.418562 -9.415224,-0.664167 -25.27898,-2.182227 -29.163905,-3.013149 -1.620414,-0.219938 -3.062328,-1.172277 -2.92409,-2.755755 0.48842,-5.594793 12.341025,-12.026477 18.857628,-14.50851 1.306559,-0.497638 2.34675,-0.905949 3.082626,-1.038025 1.346354,-0.399979 2.724487,-0.833099 3.768558,-1.143039 1.229096,-0.364812 2.484799,-0.615638 3.710897,-0.950424 2.510317,-0.685336 5.0795,-1.162707 7.603573,-1.765584 6.714762,-1.603933 13.569435,-2.785518 20.465397,-3.900971 4.44135,-0.718326 9.02923,-1.238446 13.42532,-1.715816 14.2809,-1.550788 29.09707,-2.429076 43.34461,-2.632274 20.5615,-0.293126 52.44501,3.046703 63.46321,5.623392 5.14331,1.475559 12.03107,2.772306 16.5748,6.132718 1.69377,1.252668 3.15209,2.755229 3.88078,4.822181 z"
       style="display:inline;fill:#ff5555;fill-opacity:1;fill-rule:evenodd;stroke:#000000;stroke-width:0.38929135;stroke-linecap:butt;stroke-linejoin:miter;stroke-miterlimit:4;stroke-dasharray:none;stroke-opacity:0.98159509;paint-order:stroke markers fill"
       inkscape:label="Top2" />
    <path
       style="display:none;fill:#000000;fill-opacity:0.35096154;fill-rule:evenodd;stroke:none;stroke-width:0.38800925;stroke-linecap:round;stroke-linejoin:miter;stroke-miterlimit:4;stroke-dasharray:none;stroke-opacity:1;paint-order:stroke markers fill"
       d="m 244.80616,-42.380171 c -7.15629,9.021846 -19.76815,9.338429 -31.52469,11.363209 -4.73521,0.815535 -8.60754,1.351005 -13.71246,1.917176 -6.81042,0.965588 -13.22368,1.892592 -19.7909,2.577027 -8.13183,0.847587 -16.39537,0.918185 -24.7027,1.493289 -12.32267,0.853141 -25.39232,0.716374 -38.10602,0.913117 -12.22501,0.189537 -26.463889,-0.586964 -38.252634,-1.418562 -9.415224,-0.664167 -25.27898,-2.182227 -29.163905,-3.013149 -1.620414,-0.219938 -3.062328,-1.172277 -2.92409,-2.755755 0.48842,-5.594793 12.341025,-12.026477 18.857628,-14.50851 1.306559,-0.497638 2.34675,-0.905949 3.082626,-1.038025 1.346354,-0.399979 2.724487,-0.833099 3.768558,-1.143039 1.229096,-0.364812 2.484799,-0.615638 3.710897,-0.950424 2.510317,-0.685336 5.0795,-1.162707 7.603573,-1.765584 6.714762,-1.603933 13.569435,-2.785518 20.465397,-3.900971 4.44135,-0.718326 9.02923,-1.238446 13.42532,-1.715816 14.2809,-1.550788 29.09707,-2.429076 43.34461,-2.632274 20.5615,-0.293126 52.44501,3.046703 63.46321,5.623392 6.889,2.3259 17.77209,3.343132 20.45558,10.954899 z"
       id="path4881"
       inkscape:connector-curvature="0"
       sodipodi:nodetypes="cscsssscsscsssssscc"
       inkscape:label="Top" />
    <g
       id="g5265"
       style="fill:#ffdd55;fill-rule:evenodd">
      <ellipse
         inkscape:label="innoGrad2"
         transform="matrix(3.0169699,1.1271775,-2.5263775,6.7620271,363.95164,-1022.1259)"
         cx="58.25304"
         cy="147.56238"
         rx="1.2946428"
         ry="0.93750006"
         id="path4495"
         style="opacity:1;fill:#ffdd55;fill-opacity:1;fill-rule:evenodd;stroke:none;stroke-width:0.1;stroke-linecap:round;stroke-linejoin:miter;stroke-miterlimit:4;stroke-dasharray:none;stroke-opacity:1;paint-order:stroke markers fill" />
      <ellipse
         inkscape:label="innoGrad2"
         transform="matrix(3.0169699,1.1271775,-2.5263775,6.7620271,406.95533,-1020.5589)"
         cx="58.25304"
         cy="147.56238"
         rx="1.2946428"
         ry="0.93750006"
         id="path4495-5"
         style="display:inline;opacity:1;fill:#ffdd55;fill-opacity:1;fill-rule:evenodd;stroke:none;stroke-width:0.1;stroke-linecap:round;stroke-linejoin:miter;stroke-miterlimit:4;stroke-dasharray:none;stroke-opacity:1;paint-order:stroke markers fill;enable-background:new" />
    </g>
    <path
       inkscape:path-effect="#path-effect11258"
       sodipodi:nodetypes="cccccccscccccccccccccccccccccccccccccccccccccccccccccccccccccccccccccccccccccccccccccccccccccccccc"
       inkscape:original-d="m 234.91713,61.288513 c 0,0 0.45999,0.739287 0.6875,1.108851 0.33621,0.06326 0.67237,0.12771 1.00849,0.19334 0.4655,0.08922 0.92739,0.178929 1.38954,0.269885 0.8238,0.07689 1.64549,0.154672 2.46856,0.23368 2.42691,0.05374 4.84775,0.108358 7.26699,0.163967 1.62429,0.09861 3.24867,0.198294 4.87408,0.299099 1.27431,0.02664 2.54492,0.05421 3.81588,0.08282 2.03217,0.476627 4.06295,0.95416 6.09351,1.43288 1.93653,0.898226 3.87101,1.796967 5.80545,2.697153 0.58738,0.382827 1.17397,0.765729 1.76097,1.149607 0.90216,1.329499 1.80248,2.657346 2.70336,3.986957 0.039,1.288439 0.0773,2.576877 0.11522,3.865691 3.8e-4,-3.75e-4 3.8e-4,-3.75e-4 0,0 -0.10734,0.575704 -0.21581,1.156288 -0.3239,1.73492 -1.27234,3.491533 -2.54325,6.978413 -3.81547,10.468178 -2.73932,4.04394 -5.47826,8.08711 -8.21799,12.131269 -3.78289,3.91343 -7.56538,7.8263 -11.34865,11.74003 -7.85966,5.38098 -15.71813,10.7612 -23.57776,16.1424 -7.01136,4.56543 -14.02235,9.13072 -21.03409,13.69669 -11.60987,5.47859 -23.21866,10.95688 -34.8286,16.43593 -9.71807,3.06521 -19.43576,6.13049 -29.15424,9.19629 -4.33709,0.97798 -8.67415,1.95629 -13.01181,2.93501 -4.66347,0.16252 -9.32634,0.32578 -13.99011,0.48912 -4.01113,-0.098 -8.02192,-0.19592 -12.03346,-0.2935 -4.696047,-0.62007 -9.391609,-1.23961 -14.087997,-1.85885 -2.184705,-0.55476 -4.434677,-1.10915 -6.652635,-1.66316 -4.598317,-1.04407 -9.19592,-2.08746 -13.794462,-3.13062 -3.228284,-1.43538 -6.456605,-2.87019 -9.685489,-4.30467 -5.021979,-2.87034 -10.043807,-5.73993 -15.066274,-8.60933 -2.93467,-2.64192 -5.869603,-5.28335 -8.804986,-7.92445 -2.967248,-4.40292 -5.934797,-8.80536 -8.902795,-13.20746 -1.075782,-2.15269 -2.151939,-4.30504 -3.228509,-6.45702 -0.749591,-3.13085 -1.499707,-6.2617 -2.25016,-9.39195 3.75e-4,-3.39166 3.75e-4,-6.78351 0,-10.17464 0.22857,-1.30469 0.456953,-2.60927 0.684847,-3.91332 0.326529,-1.989009 0.652608,-3.978959 0.978311,-5.967859 2.380472,-4.95611 4.761619,-9.914099 7.141828,-14.870584 3.391623,-4.109011 6.783471,-8.218398 10.174644,-12.326958 1.989463,-2.152502 3.978925,-4.305042 5.967825,-6.457018 2.837011,-2.250123 5.674699,-4.500658 8.511448,-6.750443 2.348044,-1.239422 4.696388,-2.478881 7.043981,-3.717702 0.225292,-0.361048 0.67392,-1.081822 0.67392,-1.081822 l 0.118631,36.977553 0.24331,8.025064 c 0,0 0.169228,2.45893 0.255892,3.741804 0.163515,0.679872 0.304845,1.271984 0.474385,1.987475 0.309117,0.77351 0.585116,1.46729 0.85708,2.15445 0.521278,0.72177 1.064789,1.47683 1.633617,2.26944 0.864745,0.85547 1.628097,1.61239 2.476237,2.45538 0.854263,0.61202 1.644045,1.17944 2.488263,1.78768 0.789799,0.54107 1.560595,1.07077 2.32217,1.59582 1.653234,0.98548 3.35424,2.00107 5.031333,3.00399 1.108851,0.60678 2.215342,1.21381 3.321607,1.82227 1.018718,0.49535 2.036051,0.99152 3.052983,1.48898 0.809057,0.35356 1.616527,0.70787 2.423528,1.06341 1.18928,0.4346 2.381268,0.87156 3.564144,1.30655 0.995049,0.3013 1.997523,0.60615 2.992658,0.91008 1.685158,0.40679 3.367843,0.81422 5.059665,1.22511 1.683813,0.30571 3.363327,0.61182 5.02975,0.91673 1.88715,0.35117 3.81589,0.71128 5.68953,1.0623 2.92806,0.39625 5.90796,0.80066 8.88363,1.20564 0.82329,0.10309 1.63683,0.20606 2.45405,0.31064 1.51352,0.165 3.02913,0.33135 4.53646,0.49789 1.63703,0.13849 3.27414,0.27807 4.92053,0.41953 1.55606,0.0833 3.09482,0.16665 4.64475,0.2517 1.12911,0.0338 2.25429,0.0685 3.37846,0.1042 1.79424,-0.0222 3.58844,-0.0434 5.38444,-0.0637 1.17541,-0.0563 2.34737,-0.11157 3.51895,-0.16582 1.13607,-0.0952 2.27014,-0.18927 3.40636,-0.28262 1.48608,-0.0977 2.95973,-0.1936 4.44834,-0.28957 1.7824,-0.12385 3.54877,-0.24566 5.3197,-0.36685 1.78694,-0.1423 3.57256,-0.28357 5.36174,-0.42421 1.40248,-0.10573 2.79651,-0.2099 4.19756,-0.31368 2.1467,-0.25104 4.28502,-0.50022 6.42393,-0.74859 2.14123,-0.1636 4.28111,-0.32618 6.42487,-0.48813 2.25959,-0.50091 4.51227,-0.99953 6.76584,-1.49756 2.4725,-0.78172 4.93752,-1.5604 7.41681,-2.3429 2.52042,-0.88163 5.02114,-1.75571 7.53384,-2.63334 1.09982,-0.47339 2.19719,-0.94516 3.29329,-1.41582 1.75438,-0.75444 3.50521,-1.50678 5.25739,-2.25915 1.57745,-0.94461 3.14865,-1.88508 4.72739,-2.82967 1.14007,-0.81206 2.26832,-1.61541 3.40867,-2.4271 1.85035,-1.16303 3.68184,-2.31384 5.5231,-3.47041 1.55435,-1.27047 3.10142,-2.5348 4.65695,-3.80586 0.96302,-1.164121 1.9201,-2.321257 2.87827,-3.479926 0.42214,-0.744284 0.84321,-1.487433 1.26377,-2.23044 0.33507,-0.633467 0.67527,-1.277523 1.00362,-1.900039 0.34075,-0.861161 0.68027,-1.720718 1.03533,-2.621166 0.26505,-0.896728 0.52525,-1.779416 0.76778,-2.604536 0.14602,-0.699969 0.31987,-1.537896 0.45722,-2.203664 0.12413,-1.243808 0.26202,-2.635535 0.40696,-4.107469 -0.0424,-1.744141 -0.087,-3.536846 -0.12094,-4.860974 -0.21187,-2.114418 -0.56227,-5.5932 -0.78088,-7.752659 -0.12565,-0.966389 -0.32692,-2.500662 -0.45446,-3.464233 -0.0851,-0.628435 -0.20177,-1.477762 -0.30941,-2.25342 -0.14585,-0.563691 -0.42606,-1.632612 -0.42606,-1.632612 z"
       inkscape:connector-curvature="0"
       id="path11256"
       d="m 234.91713,61.288513 c 0.22917,0.369617 0.45882,0.740014 0.74115,0.956639 0.28234,0.216625 0.6185,0.281071 1.01931,0.358496 0.40081,0.07742 0.8627,0.167136 1.50573,0.251025 0.64304,0.08389 1.46473,0.161672 3.08976,0.228013 1.62503,0.06634 4.04587,0.120964 6.06761,0.198092 2.02174,0.07713 3.64613,0.176809 5.09601,0.240512 1.44988,0.0637 2.72049,0.09128 4.37193,0.343971 1.65143,0.252691 3.68221,0.730226 5.66562,1.418716 1.9834,0.68849 3.91788,1.58723 5.17893,2.228355 1.26104,0.641125 1.84761,1.024054 2.59211,1.880669 0.7445,0.856614 1.64484,2.184448 2.1147,3.493328 0.46987,1.30888 0.50828,2.597315 0.52748,3.241714 0.0192,0.6444 0.0192,0.6444 -0.0345,0.932239 -0.0537,0.28784 -0.16213,0.868438 -0.85243,2.903483 -0.6903,2.035046 -1.96121,5.521927 -3.96691,9.28879 -2.0057,3.766864 -4.74464,7.810037 -8.00592,11.788845 -3.26129,3.9788 -7.04375,7.8917 -12.86519,12.5391 -5.82143,4.64739 -13.67988,10.02764 -21.11538,15.00095 -7.4355,4.97331 -14.44648,9.53862 -23.75728,14.56093 -9.3108,5.02231 -20.91959,10.50061 -31.5836,14.77275 -10.66402,4.27214 -20.3817,7.33744 -27.40949,9.35937 -7.02778,2.02193 -11.36485,3.00022 -15.86543,3.57096 -4.50059,0.57074 -9.16347,0.73377 -13.50093,0.76638 -4.33745,0.0326 -8.34825,-0.0652 -12.70207,-0.42395 -4.353815,-0.35874 -9.049375,-0.9783 -12.490903,-1.56147 -3.441529,-0.58317 -5.689594,-1.14519 -9.097728,-1.94422 -3.408134,-0.79903 -8.005732,-1.84244 -11.919203,-3.08169 -3.913471,-1.23925 -7.141791,-2.67406 -11.26725,-4.82648 -4.125458,-2.15242 -9.147271,-5.02203 -13.125893,-7.77772 -3.978623,-2.75568 -6.913557,-5.39711 -9.864911,-8.91917 -2.951355,-3.52206 -5.918916,-7.92449 -7.940804,-11.20193 -2.021888,-3.27743 -3.098059,-5.42978 -4.011149,-8.07125 -0.91309,-2.64147 -1.663192,-5.77233 -2.038184,-9.03334 -0.374992,-3.26101 -0.374992,-6.65286 -0.260825,-9.00079 0.114166,-2.34793 0.342475,-3.65252 0.619613,-5.29906 0.277138,-1.646544 0.603346,-3.636473 1.956507,-7.108995 1.353161,-3.472521 3.734312,-8.430509 6.620301,-12.963227 2.885989,-4.532719 6.277855,-8.64209 8.96817,-11.772625 2.690315,-3.130535 4.679776,-5.283076 7.092763,-7.484089 2.412986,-2.201014 5.250655,-4.451573 7.843074,-6.196128 2.592419,-1.744554 4.940779,-2.983981 6.227044,-3.784079 1.286265,-0.800098 1.510525,-1.160096 1.735165,-1.520703 0,0 0.118631,36.977553 0.118631,36.977553 0,0 0.24331,8.025064 0.24331,8.025064 0.0853,1.247268 0.168165,2.459003 0.2932,3.440479 0.125036,0.981477 0.266365,1.573589 0.505675,2.31819 0.23931,0.7446 0.515308,1.43838 0.911966,2.14301 0.396658,0.70464 0.940173,1.45969 1.657028,2.28383 0.716854,0.82413 1.480205,1.58106 2.331497,2.30863 0.851293,0.72757 1.641077,1.29498 2.458098,1.86964 0.817021,0.57467 1.587817,1.10437 2.795265,1.85965 1.207447,0.75528 2.90845,1.77087 4.301448,2.57572 1.392998,0.80486 2.499488,1.41189 3.562013,1.9638 1.062524,0.55192 2.079858,1.04808 2.992881,1.4736 0.913022,0.42551 1.720493,0.77982 2.718678,1.17489 0.998184,0.39507 2.190172,0.83203 3.279175,1.20016 1.089003,0.36814 2.091475,0.67299 3.431661,1.02834 1.340186,0.35535 3.02287,0.76279 4.710726,1.12107 1.687855,0.35829 3.367369,0.6644 5.144151,0.99243 1.77679,0.32804 3.70553,0.68816 6.10641,1.06178 2.40088,0.37361 5.38078,0.77803 7.28026,1.03206 1.89949,0.25403 2.71303,0.35701 3.87841,0.49179 1.16538,0.13478 2.68099,0.30112 4.25318,0.45363 1.5722,0.15251 3.20931,0.29209 4.81055,0.40444 1.60124,0.11235 3.14,0.19574 4.47954,0.25514 1.33953,0.0594 2.46471,0.0941 3.92393,0.10084 1.45923,0.007 3.25343,-0.0145 4.73915,-0.0528 1.48572,-0.0383 2.65769,-0.0935 3.81153,-0.16828 1.15384,-0.0747 2.28791,-0.16883 3.59905,-0.26433 1.31114,-0.0955 2.78479,-0.19143 4.4203,-0.30134 1.6355,-0.10991 3.40187,-0.23172 5.18081,-0.36347 1.77894,-0.13175 3.56456,-0.27303 5.16039,-0.39621 1.59583,-0.12318 2.98986,-0.22736 4.76375,-0.40479 1.77389,-0.17743 3.91221,-0.42661 6.05227,-0.63257 2.14005,-0.20597 4.27993,-0.36854 6.48165,-0.70006 2.20172,-0.33153 4.4544,-0.83014 6.81745,-1.47007 2.36306,-0.63994 4.82808,-1.41862 7.32794,-2.2507 2.49985,-0.83209 5.00057,-1.70617 6.80683,-2.38173 1.80627,-0.67556 2.90363,-1.14733 4.32888,-1.75988 1.42524,-0.61255 3.17606,-1.3649 4.84086,-2.21348 1.6648,-0.84858 3.236,-1.78905 4.59539,-2.66742 1.35939,-0.87838 2.48763,-1.68173 3.983,-2.66905 1.49537,-0.98732 3.32686,-2.13813 5.02463,-3.35173 1.69776,-1.2136 3.24483,-2.47793 4.50401,-3.69562 1.25918,-1.217683 2.21626,-2.374822 2.9063,-3.326348 0.69005,-0.951525 1.11112,-1.694675 1.48891,-2.382916 0.3778,-0.688242 0.71799,-1.332299 1.05247,-2.074143 0.33447,-0.741845 0.67399,-1.601403 0.98398,-2.499984 0.30999,-0.89858 0.57019,-1.781267 0.76441,-2.543794 0.19422,-0.762528 0.36808,-1.600454 0.49875,-2.555208 0.13067,-0.954754 0.26856,-2.346481 0.31978,-3.954462 0.0512,-1.607981 0.007,-3.400686 -0.11634,-5.119917 -0.12295,-1.71923 -0.47335,-5.198012 -0.64549,-6.760918 -0.17214,-1.562907 -0.37341,-3.097179 -0.47976,-3.893175 -0.10635,-0.795996 -0.22297,-1.64533 -0.34974,-2.314928 -0.12678,-0.669597 -0.26379,-1.194621 -0.40581,-1.738825 0,0 0,2.1e-5 0,2.1e-5 z"
       style="display:inline;fill:none;fill-opacity:1;fill-rule:evenodd;stroke:none;stroke-width:0.38929135;stroke-linecap:butt;stroke-linejoin:round;stroke-miterlimit:4;stroke-dasharray:none;stroke-opacity:1;enable-background:new" />
  </g>
</svg>
